<svg width="382" height="176" viewBox="0 0 382 176" fill="none" xmlns="http://www.w3.org/2000/svg">
<path d="M123.065 51.6011C123.065 58.0211 122.358 63.7358 120.944 68.7453C119.531 73.7062 117.532 78.0348 114.948 81.7311C112.413 85.4275 109.342 88.5645 105.735 91.1422C102.176 93.7199 98.2033 95.7869 93.816 97.3433C89.4286 98.8996 84.7001 100.043 79.6302 100.772C74.5604 101.453 69.2712 101.793 63.7627 101.793H0V1.55469H63.6165C69.125 1.55469 74.4142 1.91946 79.484 2.649C84.5538 3.3299 89.2824 4.44853 93.6697 6.00488C98.1058 7.56123 102.128 9.62826 105.735 12.206C109.342 14.735 112.413 17.8721 114.948 21.617C117.532 25.3134 119.531 29.642 120.944 34.6028C122.358 39.5637 123.065 45.2298 123.065 51.6011ZM95.7172 51.6011C95.7172 46.7862 95.0834 42.6035 93.816 39.053C92.5973 35.5026 90.5986 32.5845 87.82 30.2986C85.09 27.964 81.5071 26.2375 77.071 25.1188C72.6349 23.9516 67.2238 23.3679 60.8378 23.3679H27.1284V79.9802H60.8378C67.2238 79.9802 72.6349 79.4209 77.071 78.3023C81.5071 77.135 85.09 75.3841 87.82 73.0496C90.5986 70.6664 92.5973 67.6996 93.816 64.1492C95.0834 60.5988 95.7172 56.4161 95.7172 51.6011Z" fill="#61E786"/>
<path d="M143.361 101.793V1.55469H245.074V22.9302H171.22V39.4908H241.272V60.8663H171.22V80.418H246.098V101.793H143.361Z" fill="#61E786"/>
<path d="M334.324 50.3609L382 101.793H349.461L318.018 68.0158L286.722 101.793H254.255L301.858 50.3609L256.595 1.55469H289.135L318.018 32.9249L347.048 1.55469H379.587L334.324 50.3609Z" fill="#61E786"/>
<path d="M27.1284 136.795V154.231H92.4267V175.607H27.1284V215.659H0V115.42H96.0097V136.795H27.1284Z" fill="#61E786"/>
<path d="M114.697 215.659V115.42H141.825V215.659H114.697Z" fill="#61E786"/>
<path d="M263.761 215.659L195.977 146.79V215.659H168.848V115.42H198.317L266.174 184.58V115.42H293.156V215.659H263.761Z" fill="#61E786"/>
</svg>
