<svg width="1456" height="124" viewBox="0 0 1456 124" fill="none" xmlns="http://www.w3.org/2000/svg">
<path d="M260.276 105.846C260.276 119.424 258.781 131.51 255.791 142.105C252.801 152.597 248.574 161.752 243.11 169.569C237.749 177.387 231.253 184.021 223.624 189.473C216.098 194.925 207.695 199.296 198.416 202.588C189.137 205.88 179.136 208.297 168.414 209.84C157.692 211.28 146.505 212 134.855 212H0V0H134.546C146.196 0 157.382 0.77147 168.105 2.31441C178.827 3.75449 188.828 6.12033 198.107 9.41194C207.489 12.7035 215.995 17.0752 223.624 22.5269C231.253 27.8758 237.749 34.5104 243.11 42.4309C248.574 50.2484 252.801 59.4032 255.791 69.8952C258.781 80.3872 260.276 92.3707 260.276 105.846ZM202.437 105.846C202.437 95.6623 201.097 86.8161 198.416 79.3071C195.839 71.7982 191.611 65.6264 185.735 60.7918C179.961 55.8544 172.383 52.2028 163.001 49.837C153.619 47.3683 142.175 46.1339 128.669 46.1339H57.3752V165.866H128.669C142.175 165.866 153.619 164.683 163.001 162.317C172.383 159.849 179.961 156.146 185.735 151.208C191.611 146.168 195.839 139.893 198.416 132.384C201.097 124.875 202.437 116.029 202.437 105.846Z" fill="#61E786"/>
<path d="M303.201 212V0H518.319V45.2081H362.123V80.2329H510.277V125.441H362.123V166.792H520.484V212H303.201Z" fill="#61E786"/>
<path d="M707.079 103.223L807.911 212H739.091L672.592 140.562L606.402 212H537.737L638.414 103.223L542.686 0H611.505L672.592 66.3464L733.988 0H802.807L707.079 103.223Z" fill="#61E786"/>
<path d="M893.364 45.2081V82.0844H1031.47V127.293H893.364V212H835.989V0H1039.04V45.2081H893.364Z" fill="#61E786"/>
<path d="M1078.57 212V0H1135.94V212H1078.57Z" fill="#61E786"/>
<path d="M1393.83 212L1250.47 66.3464V212H1193.09V0H1255.42L1398.93 146.271V0H1456V212H1393.83Z" fill="#61E786"/>
</svg>
