<svg width="106" height="106" viewBox="0 0 106 106" fill="none" xmlns="http://www.w3.org/2000/svg">
<g clip-path="url(#clip0_3681_16073)">
<path fill-rule="evenodd" clip-rule="evenodd" d="M106 53C106 46.11 104.622 39.114 101.972 32.754C99.322 26.394 95.4 20.458 90.524 15.476C85.542 10.6 79.712 6.678 73.246 4.028C66.78 1.378 59.89 0 53 0C46.11 0 39.114 1.378 32.754 4.028C26.394 6.678 20.458 10.6 15.476 15.476C10.6 20.458 6.678 26.288 4.028 32.754C1.378 39.22 0 46.11 0 53C0 59.89 1.378 66.886 4.028 73.246C6.678 79.606 10.6 85.542 15.476 90.524C20.352 95.4 26.288 99.322 32.648 101.972C39.008 104.622 46.11 106 53 106C59.89 106 66.886 104.622 73.246 101.972C79.606 99.322 85.542 95.4 90.524 90.524C95.4 85.648 99.322 79.712 101.972 73.352C104.622 66.992 106 59.89 106 53Z" fill="url(#paint0_linear_3681_16073)"/>
<path fill-rule="evenodd" clip-rule="evenodd" d="M50.2441 29.0439H55.7561V76.9559H50.2441V29.0439Z" fill="white"/>
<path fill-rule="evenodd" clip-rule="evenodd" d="M47.1702 51.6221V45.8981C42.8242 43.7781 39.7502 39.2201 39.7502 34.0261C39.7502 26.7121 45.6862 20.7761 53.0002 20.7761C61.2682 20.7761 67.2042 26.7121 67.2042 34.0261C67.2042 35.8281 66.7802 37.6301 65.9322 39.7501L63.6002 32.1181L58.9362 33.6021L63.0702 49.3961L79.1822 43.4601L77.1682 38.7961L71.1262 40.8101C72.1862 38.4781 72.3982 36.6761 72.3982 33.9201C72.3982 23.6381 64.1302 15.3701 52.8942 15.3701C42.6122 15.3701 34.3442 23.6381 34.3442 33.9201C34.4502 42.1881 39.7502 49.1841 47.1702 51.6221Z" fill="white"/>
<path fill-rule="evenodd" clip-rule="evenodd" d="M58.8299 54.3779V60.1019C63.1759 62.2219 66.2499 66.7799 66.2499 71.9739C66.2499 79.2879 60.3139 85.2239 52.9999 85.2239C44.7319 85.2239 38.7959 79.2879 38.7959 71.9739C38.7959 70.1719 39.2199 68.3699 40.0679 66.2499L42.3999 73.8819L47.0639 72.3979L42.9299 56.6039L26.8179 62.5399L28.8319 67.2039L34.8739 65.1899C33.8139 67.5219 33.6019 69.3239 33.6019 72.0799C33.6019 82.3619 41.8699 90.6299 53.1059 90.6299C63.3879 90.6299 71.6559 82.3619 71.6559 72.0799C71.5499 63.8119 66.2499 56.8159 58.8299 54.3779Z" fill="white"/>
</g>
<defs>
<linearGradient id="paint0_linear_3681_16073" x1="0" y1="0" x2="106" y2="106" gradientUnits="userSpaceOnUse">
<stop stop-color="#0077FC"/>
<stop offset="1" stop-color="#095EB5"/>
</linearGradient>
<clipPath id="clip0_3681_16073">
<rect width="106" height="106" fill="white"/>
</clipPath>
</defs>
</svg>
