<svg width="106" height="106" viewBox="0 0 106 106" fill="none" xmlns="http://www.w3.org/2000/svg">
<rect x="0.00195312" width="106" height="106" rx="53" fill="white"/>
<g clip-path="url(#clip0_1644_55643)">
<path d="M61.4847 34.1401H57.1787V40.6421H61.4847V34.1401Z" fill="#1682FE"/>
<path d="M49.1266 22.0835H44.8207V28.5855H49.1266V22.0835Z" fill="#1682FE"/>
<path d="M36.7686 28.2842H32.4626V34.7862H36.7686V28.2842Z" fill="#60D8A4"/>
<path d="M30.6111 53H26.2621V71.5586H30.6111V53Z" fill="#F4BB3B"/>
<path d="M30.6111 34.4414H26.2621V53H30.6111V34.4414Z" fill="#60D8A4"/>
<path d="M67.6422 40.3408H63.3363V46.8428H67.6422V40.3408Z" fill="#1682FE"/>
<path d="M67.6422 59.1577H63.3363V65.6597H67.6422V59.1577Z" fill="#FF5A5A"/>
<path d="M61.4847 65.3584H57.1787V71.8604H61.4847V65.3584Z" fill="#FF5A5A"/>
<path d="M49.1266 77.415H44.8207V83.917H49.1266V77.415Z" fill="#FF5A5A"/>
<path d="M36.7686 71.2144H32.4626V77.7163H36.7686V71.2144Z" fill="#F4BB3B"/>
<path d="M79.7419 46.7996V34.4416H73.5413V28.2841H61.1833V22.0835H48.8252V28.2841H36.4672V34.4846H30.2666V71.5588H36.4672V77.7593H48.8252V83.9599H61.1833V77.7593H73.5413V71.5588H79.7419V59.1577H67.3838V65.3582H61.1833V71.5588H48.8252V65.3582H42.6677V40.6421H48.8683V34.4416H61.2263V40.6421H67.4269V46.8427H79.7419V46.7996Z" fill="#3A3A3A"/>
</g>
<defs>
<clipPath id="clip0_1644_55643">
<rect width="53.4798" height="61.8333" fill="white" transform="translate(26.2621 22.0835)"/>
</clipPath>
</defs>
</svg>
