<svg width="106" height="106" viewBox="0 0 106 106" fill="none" xmlns="http://www.w3.org/2000/svg">
<rect width="106" height="106" rx="53" fill="#94A6C3"/>
<g clip-path="url(#clip0_1643_9210)">
<path d="M34.4835 56.3893L36.3532 42.342L20.1362 31.0841L34.9534 36.1032L38.4528 30.7342L51.2304 22.8057L79.3951 38.3227L80.8548 61.9983L68.3071 79.435L58.389 80.9547L63.5181 71.5665V62.5282L59.7888 55.4695L55.9995 52.96L50.1706 58.9688V65.3276L45.6214 69.5868L39.8425 70.2867L37.283 71.7364L33.0838 70.3967L31.3341 64.0979L34.4835 59.6687V56.3893Z" fill="white"/>
<path d="M60.3787 30.964C57.2892 30.3241 53.9099 30.4941 53.9099 30.4941C53.9099 30.4941 52.8001 35.6231 45.9214 36.9729C45.9714 36.9729 55.0097 40.0623 60.3787 30.964Z" fill="#94A6C3"/>
<path d="M63.1781 77.505C66.9074 74.5856 69.7069 70.5663 70.9966 66.0172C71.0566 65.8472 71.5765 65.5473 71.9264 65.3173C72.5063 64.9674 73.0962 64.6775 73.2062 64.2075C73.4362 62.8678 73.5561 61.4681 73.5561 60.0683C73.5561 59.5484 73.0262 59.0185 72.5063 58.4986C72.0964 58.1487 71.6865 57.7388 71.6865 57.4488C71.1066 52.1398 68.6571 47.1808 64.7478 43.5714L64.3379 43.9814C68.1272 47.5407 70.5767 52.3798 71.1066 57.5088C71.1666 57.9787 71.6265 58.4386 72.0964 58.9085C72.5063 59.2585 72.9762 59.7884 72.9762 60.0183C72.9762 61.3581 72.8563 62.6978 72.6263 64.0376C72.5663 64.2675 72.0464 64.5075 71.6365 64.7374C71.0566 65.0274 70.5267 65.3173 70.4167 65.7872C69.017 70.7463 65.8076 75.0655 61.5484 77.865C62.3083 76.2353 64.6978 70.9263 65.9776 68.2368L65.7476 59.6084L58.339 52.4398L54.1398 53.0196L49.5307 60.4882C49.5307 60.4882 51.6903 63.2277 48.6508 66.4371C45.6814 69.5865 43.3418 70.2864 43.3418 70.2864L41.1822 69.1166C41.8221 68.2968 43.1119 67.077 44.1017 66.2572C45.7914 64.8574 47.4811 64.7374 47.4811 63.2277C47.551 60.0683 44.1617 60.9382 44.1617 60.9382L42.9319 62.1079L42.412 66.4271L39.8525 69.6365L39.5626 69.5765L35.3633 68.6467C35.3633 68.6467 37.9329 67.307 38.3428 65.7872C38.7527 64.3275 37.5229 59.4884 37.4629 59.1985C37.5229 59.2585 38.6927 60.2483 39.2126 61.878C40.1424 59.3085 41.3722 56.8589 41.7221 56.629C42.0721 56.399 46.7912 53.8895 46.7912 53.8895L45.2215 58.0287L46.3913 57.3888L49.1907 50.5101C49.1907 50.5101 51.9302 49.1704 53.9698 49.1704C57.6391 49.1104 63.0681 44.6212 60.6186 36.5728C61.3184 36.8627 73.4462 42.9316 75.5458 54.8293C77.1155 63.9776 71.9264 72.546 63.1781 77.505Z" fill="#94A6C3"/>
<path d="M49.3007 32.2437C50.6405 30.664 50.1206 28.3345 50.1206 28.3345L46.2113 34.1134C46.1513 34.1134 47.6011 34.1734 49.3007 32.2437Z" fill="#1B314F"/>
<path d="M36.1732 63.7978L36.6431 61.4683C36.6431 61.4683 34.7135 64.8476 34.5435 65.3175C34.3635 65.8474 34.6635 66.7773 35.4133 66.7173C36.1732 66.6573 37.103 65.5475 37.103 64.7376C37.103 63.6878 36.1732 63.7978 36.1732 63.7978Z" fill="#1B314F"/>
<path d="M70.8167 26.7048C70.8167 26.7048 73.7361 26.8248 76.7656 27.1747C69.9369 21.8057 63.4681 20.236 58.2191 20.236C50.9904 20.236 46.0914 23.2155 45.7914 23.3854L48.071 19.7661C48.071 19.7661 38.9727 18.8863 35.7633 28.5145C34.9435 26.4749 34.1936 23.4954 34.1936 23.4954C34.1936 23.4954 29.4645 27.6446 31.6841 34.5233C26.2551 32.5437 18.5066 29.7942 18.2066 29.7442C17.7967 29.6843 17.6767 29.8642 17.6767 29.8642C17.6767 29.8642 17.5567 30.0342 17.9067 30.3341C18.5565 30.844 30.8042 39.8923 33.4937 41.642C32.9138 43.7416 32.9138 44.7314 33.4937 45.7212C34.3136 47.061 34.3636 47.7608 34.2536 48.7507C34.1336 49.7405 33.0838 58.3188 32.8538 59.3687C32.6239 60.4185 30.1744 64.1478 30.2843 65.2575C30.4043 66.3673 31.914 71.0864 33.2638 71.6163C34.2536 71.9663 36.7031 72.7261 38.3328 72.7261C38.9127 72.7261 39.4426 72.6062 39.6726 72.3762C40.6624 71.5064 40.9523 71.3264 41.6522 71.3264C41.7122 71.3264 41.7722 71.3264 41.8222 71.3264C42.1121 71.3264 42.462 71.3864 42.872 71.3864C43.8018 71.3864 45.0316 71.2064 45.9014 70.3966C47.1811 69.1168 49.4007 67.3671 50.1006 66.5473C50.9804 65.4375 51.4403 63.9278 51.2104 62.4081C51.0304 61.0083 51.7903 59.7786 52.6701 58.5588C53.7799 57.0991 55.8195 54.4796 55.8195 54.4796C59.8488 57.499 62.3583 62.1081 62.3583 67.2372C62.3583 76.3354 54.4298 83.6841 44.6316 83.6841C43.1119 83.6841 41.6622 83.5141 40.2025 83.1642C44.6916 84.7339 48.4809 85.2638 51.5803 85.2638C58.1691 85.2638 61.6684 82.8742 61.6684 82.8742C61.6684 82.8742 60.4486 84.4539 58.459 86.2536C58.519 86.2536 58.519 86.2536 58.519 86.2536C69.427 84.7339 74.736 75.7556 74.736 75.7556C74.736 75.7556 74.326 78.675 73.8061 80.6546C88.3134 69.7467 85.8639 56.0993 85.8039 55.6394C85.9238 55.8093 87.3836 57.559 88.1334 58.4988C90.473 34.4634 70.8167 26.7048 70.8167 26.7048ZM48.4809 65.0876C48.2509 65.3775 47.2611 66.2574 46.5613 66.8972C45.8614 67.5371 45.1015 68.177 44.5217 68.7669C44.2917 68.9968 43.8218 69.1168 43.1219 69.1168C42.892 69.1168 42.652 69.1168 42.482 69.1168C42.3621 69.1168 42.2521 69.1168 42.1321 69.1168C42.0121 69.1168 41.9521 69.1168 41.9021 69.1168C41.7222 69.1168 41.5522 69.1168 41.3722 69.1168C42.2521 67.947 44.8116 65.2675 45.6914 64.6876C46.7412 63.9878 47.2711 63.2879 46.6213 62.0681C45.9814 60.8384 44.2917 61.1383 44.2917 61.1383C44.2917 61.1383 45.2815 60.7284 46.1613 60.7284C45.0516 60.4384 43.6518 60.7284 43.0119 61.3683C42.3121 62.0082 42.432 64.2877 42.1421 65.7374C41.8522 67.2572 40.8623 68.017 39.3426 69.4168C38.5228 70.1766 37.9429 70.4066 37.473 70.4066C36.4832 70.2366 35.3134 69.9367 34.4935 69.6467C33.9137 68.8869 33.0338 66.3773 32.8039 65.3275C32.9738 64.7476 33.6737 63.5179 34.0236 62.818C34.7235 61.4783 35.1334 60.7184 35.2534 60.0185C35.4834 59.0287 36.2432 52.8999 36.5332 50.3404C37.293 51.3302 38.3428 52.9699 38.1029 54.0197C39.7925 51.6301 38.5728 49.2906 37.9829 48.3607C37.463 47.4309 36.7631 45.5613 37.343 43.5816C37.9229 41.602 40.0225 36.113 40.0225 36.113C40.0225 36.113 40.7224 37.3428 41.7122 37.1029C42.702 36.8729 50.6905 24.8552 50.6905 24.8552C50.6905 24.8552 52.8501 29.5743 50.5705 33.0236C48.2409 36.463 45.9614 37.1029 45.9614 37.1029C45.9614 37.1029 49.1708 37.6827 52.1402 35.5232C53.36 38.3826 54.5298 41.3521 54.5898 41.762C54.4098 42.1719 52.0802 47.7708 51.8503 48.1208C51.7303 48.2408 50.9204 48.4707 50.3306 48.5907C49.3407 48.8806 48.7609 49.0606 48.5209 49.2306C48.111 49.5805 46.2413 54.7095 45.3715 57.2191C44.3217 57.509 43.2719 58.0989 42.512 59.2587C42.922 58.9687 44.2017 58.7888 45.1415 58.6788C45.9614 58.6188 48.4609 59.9585 49.1108 62.4681C49.1108 62.5281 49.1108 62.5281 49.1108 62.588C49.2408 63.5079 48.9508 64.3877 48.4809 65.0876ZM43.0019 65.7874C43.5318 65.0276 43.4718 63.7478 43.5318 63.3379C43.5918 62.928 43.7018 62.1681 44.1717 62.0581C44.6416 61.9382 45.7514 62.1181 45.7514 62.928C45.7514 63.6878 44.9316 63.8578 44.3517 64.3877C43.9318 64.7876 43.1119 65.6675 43.0019 65.7874ZM66.2676 54.6395C66.8474 51.6701 66.9074 49.1006 66.7375 47.001C69.007 50.0304 70.4068 53.7097 70.8167 57.499C70.8767 57.9689 71.3366 58.4288 71.8065 58.8987C72.2164 59.2487 72.6863 59.7186 72.6863 60.0085C72.6863 61.3483 72.5664 62.688 72.3364 64.0378C72.2764 64.2077 71.7565 64.5077 71.3466 64.7376C70.7667 65.0276 70.2368 65.3175 70.1268 65.7874C68.8471 70.2766 66.0976 74.2458 62.4283 77.0453C67.8473 71.3864 70.4668 62.0481 66.2676 54.6395ZM62.5982 77.5652C66.3875 74.6458 69.307 70.5665 70.5867 65.9574C70.6467 65.7874 71.1666 65.4875 71.5166 65.2575C72.0964 64.9676 72.6863 64.6177 72.7963 64.1478C73.0263 62.808 73.1463 61.4083 73.1463 60.0085C73.1463 59.4886 72.6164 58.9587 72.0965 58.4388C71.8065 58.0889 71.3366 57.679 71.3366 57.389C70.8667 53.1298 69.177 49.1106 66.5575 45.7812C65.3877 38.7825 60.7286 36.6229 60.6086 36.563C60.7286 36.7429 63.758 41.1121 61.6584 46.2411C59.4988 51.4302 53.9599 50.6203 53.49 50.6703C53.02 50.6703 51.2204 52.9999 48.9408 57.319C48.6509 57.1991 47.4211 56.9091 46.0214 57.1491C47.0712 54.2296 48.6509 50.0904 48.9408 49.7405C49.0608 49.6205 49.9306 49.3905 50.5205 49.2206C51.6303 48.9306 52.1502 48.7507 52.3302 48.5207C52.4502 48.3407 53.03 47.001 53.6099 45.6013C54.1398 45.6013 55.4796 45.4813 55.5896 45.4213C55.7095 45.3013 56.8193 42.4518 56.8193 42.1019C56.8193 41.812 54.5398 36.153 53.6699 33.9934C54.0798 33.5235 54.4898 32.9436 54.8897 32.3038C66.8474 33.5935 76.1857 43.7416 76.1857 56.0393C76.1857 65.4875 70.6467 73.7159 62.5982 77.5652Z" fill="#1B314F"/>
<path d="M47.0811 46.0713C48.1909 44.7915 47.611 42.402 45.5614 41.9921C46.0913 40.7723 46.8412 38.3228 46.8412 38.3228C46.8412 38.3228 40.8923 47.651 40.3724 47.831C39.8425 48.0109 39.3226 45.9613 39.3226 45.9613C38.2128 50.2205 41.1922 50.8004 41.5422 49.4607C43.1719 49.0407 45.9713 47.2911 47.0811 46.0713Z" fill="#1B314F"/>
<path d="M42.0021 48.3409L45.0315 43.1519C45.0315 43.1519 46.7812 44.0317 45.9013 45.4314C44.8015 47.0611 42.0021 48.3409 42.0021 48.3409Z" fill="#FFD923"/>
<path d="M79.505 72.3763C78.6252 73.5461 77.6354 74.7658 76.4756 75.9356C83.9942 61.4683 76.8255 48.2308 76.5356 47.7109C77.0655 48.2408 77.5854 48.8207 78.0553 49.3406C83.8242 55.7494 84.5241 65.3776 79.505 72.3763Z" fill="#D82122"/>
<path d="M86.5037 53.7698C83.8742 46.7112 80.1449 40.7023 71.9264 35.2833C63.9979 30.0343 55.4795 30.4442 55.0096 30.5042C54.9496 30.5042 54.8896 30.5042 54.8896 30.5042C55.1796 30.3843 55.4695 30.3243 55.7595 30.2743C57.5691 29.6944 59.8987 29.2245 62.2383 28.9345C68.4271 28.0447 74.6659 30.1443 78.9251 34.6434C78.9851 34.7034 78.9851 34.7034 79.0451 34.7634C83.8842 39.8925 86.3937 46.3012 86.5037 53.7698Z" fill="#D82122"/>
<path d="M70.0568 24.8952C61.3685 23.2655 55.7695 24.0754 51.7403 25.5951C51.6203 25.1252 51.2104 24.1954 50.8605 23.4355C49.6507 24.8952 48.3609 26.6449 47.5511 27.7547C45.3315 29.2744 44.4017 30.7341 44.4017 30.7341C45.6814 26.3549 49.4207 23.0956 53.9699 22.2757C55.2496 22.0458 56.6494 21.9258 58.1691 21.9258C62.1883 21.9858 66.2076 22.9756 70.0568 24.8952Z" fill="#D82122"/>
<path d="M37.9229 36.0932C31.1042 35.8633 33.3737 27.9248 33.4937 27.4648C33.4937 27.5248 33.9536 33.7037 37.9229 36.0932Z" fill="#D82122"/>
<path d="M44.6316 21.8057C39.3826 24.9551 40.4324 32.4737 40.4324 32.4737C35.4133 24.8451 44.2217 21.9856 44.6316 21.8057Z" fill="#D82122"/>
<path d="M36.0032 38.1928C36.3531 38.4828 36.7031 39.0127 36.2931 39.7725C36.0632 40.1824 35.7133 40.1225 35.1834 39.8925C34.4835 39.5426 30.2843 37.093 26.495 34.5835C30.8142 36.1032 35.1834 37.7329 35.8832 38.0828C35.8832 38.0828 35.9432 38.1428 36.0032 38.1928Z" fill="white"/>
</g>
<defs>
<clipPath id="clip0_1643_9210">
<rect width="70.6667" height="66.5075" fill="white" transform="translate(17.6667 19.7461)"/>
</clipPath>
</defs>
</svg>
