<svg width="106" height="106" viewBox="0 0 106 106" fill="none" xmlns="http://www.w3.org/2000/svg">
<g clip-path="url(#clip0_3681_8261)">
<path d="M53.029 104.176C81.3068 104.176 104.23 81.2638 104.23 52.9998C104.23 24.7358 81.3068 1.82324 53.029 1.82324C24.7513 1.82324 1.82764 24.7358 1.82764 52.9998C1.82764 81.2638 24.7513 104.176 53.029 104.176Z" fill="black"/>
<path d="M101.889 32.3712C99.2176 26.0601 95.3934 20.3912 90.5262 15.524C89.5967 14.5945 88.6389 13.7041 87.6527 12.8527C87.5427 12.7604 87.4328 12.6647 87.3228 12.5724C83.2218 9.08876 78.6455 6.27202 73.6684 4.16834C67.1303 1.40127 60.1842 0 53.0253 0C45.87 0 38.9239 1.40127 32.3858 4.16479C26.0712 6.83608 20.3987 10.6532 15.5315 15.5204C10.6608 20.3876 6.84011 26.0566 4.16883 32.3676C1.40176 38.9057 0.000488281 45.8446 0.000488281 53C0.000488281 60.1554 1.40176 67.0943 4.16883 73.6289C6.84011 79.9399 10.6643 85.6088 15.5315 90.476C16.3191 91.2636 17.1315 92.0263 17.9616 92.7571C18.1177 92.8954 18.2773 93.0338 18.4334 93.1686C22.6089 96.7693 27.288 99.6783 32.3858 101.832C38.9239 104.595 45.87 105.996 53.0253 105.996C60.1842 105.996 67.1267 104.595 73.6648 101.832C79.9794 99.1639 85.6519 95.3432 90.5191 90.476C95.3899 85.6088 99.2105 79.9399 101.882 73.6289C104.645 67.0943 106.05 60.1518 106.05 53C106.054 45.8446 104.652 38.9057 101.889 32.3712ZM53.0253 103.144C41.056 103.144 30.0516 98.9333 21.4204 91.9163L73.977 69.7975L55.9804 51.5349L55.9733 51.542L55.9378 51.5065L19.9127 90.6392C9.46173 81.4405 2.85624 67.9776 2.85624 53C2.85624 25.3506 25.3617 2.85576 53.0253 2.85576C64.8492 2.85576 75.7295 6.96734 84.3145 13.8282L37.9306 33.2722L55.9378 51.5029L55.9449 51.4958L55.9804 51.5313L85.8186 15.0805C96.4577 24.2828 103.198 37.8698 103.198 53C103.198 80.6494 80.6925 103.144 53.0253 103.144ZM27.0504 86.7263L56.0123 55.2669L69.4362 68.8894L27.0504 86.7263ZM79.5395 18.6529L55.7924 47.661L42.4821 34.1875L79.5395 18.6529Z" fill="url(#paint0_linear_3681_8261)"/>
</g>
<defs>
<linearGradient id="paint0_linear_3681_8261" x1="90.5143" y1="15.5134" x2="15.541" y2="90.4866" gradientUnits="userSpaceOnUse">
<stop stop-color="#3EF8F3"/>
<stop offset="1" stop-color="#07AEFE"/>
</linearGradient>
<clipPath id="clip0_3681_8261">
<rect width="106" height="106" fill="white" transform="translate(0.000488281)"/>
</clipPath>
</defs>
</svg>
