<svg width="107" height="106" viewBox="0 0 107 106" fill="none" xmlns="http://www.w3.org/2000/svg">
<path d="M53.1084 106C82.3795 106 106.108 82.2711 106.108 53C106.108 23.7289 82.3795 0 53.1084 0C23.8373 0 0.108398 23.7289 0.108398 53C0.108398 82.2711 23.8373 106 53.1084 106Z" fill="url(#paint0_linear_3681_8313)"/>
<path d="M65.2562 58.0334L95.8029 53.0002L65.2562 47.967L83.298 22.8106L58.1416 40.8523L53.1084 10.3057L48.0752 40.8523L22.9187 22.8106L40.9605 47.967L10.4138 53.0002L40.9605 58.0334L22.9187 83.1898L48.0752 65.1481L53.1084 95.6947L58.1416 65.1481L83.298 83.1898L65.2562 58.0334Z" fill="white"/>
<defs>
<linearGradient id="paint0_linear_3681_8313" x1="53.1069" y1="0.427505" x2="53.1069" y2="105.58" gradientUnits="userSpaceOnUse">
<stop offset="0.1028" stop-color="#00FFAA"/>
<stop offset="0.999" stop-color="#5F00FA"/>
</linearGradient>
</defs>
</svg>
