<svg width="106" height="106" viewBox="0 0 106 106" fill="none" xmlns="http://www.w3.org/2000/svg">
<rect width="106" height="106" rx="53" fill="#FF007A"/>
<path d="M46.378 33.739C45.6127 33.6296 45.5762 33.5932 45.9407 33.5567C46.6331 33.4474 48.2367 33.5932 49.3665 33.8483C51.9905 34.4678 54.3594 36.0714 56.8741 38.8777L57.5302 39.643L58.4777 39.4972C62.5231 38.8412 66.6778 39.3515 70.1401 40.955C71.0877 41.3924 72.5819 42.2671 72.7641 42.4857C72.837 42.5586 72.9464 43.0324 73.0192 43.5062C73.2744 45.2191 73.165 46.4947 72.6183 47.4787C72.3268 48.0254 72.3268 48.1711 72.509 48.6449C72.6548 49.0094 73.0921 49.2645 73.493 49.2645C74.3677 49.2645 75.2788 47.8796 75.7162 45.948L75.8984 45.1826L76.2264 45.5471C78.0851 47.6245 79.5429 50.5036 79.7616 52.5445L79.8344 53.0912L79.5064 52.6174C78.9598 51.7792 78.4495 51.2325 77.7571 50.7587C76.518 49.9205 75.2059 49.6654 71.7437 49.4831C68.6094 49.3009 66.8236 49.0458 65.0742 48.4627C62.0858 47.4787 60.5551 46.2031 57.0199 41.5017C55.4528 39.4244 54.4688 38.2946 53.4848 37.347C51.3345 35.2696 49.1843 34.1763 46.378 33.739Z" fill="white"/>
<path d="M73.5295 38.3675C73.6024 36.9825 73.7846 36.0714 74.1855 35.2332C74.3313 34.9052 74.477 34.6136 74.5135 34.6136C74.5499 34.6136 74.477 34.8687 74.3677 35.1603C74.0761 35.9621 74.0397 37.0919 74.2219 38.3675C74.477 40.0075 74.5864 40.2261 76.3357 42.0119C77.1375 42.8502 78.0851 43.9071 78.4495 44.3444L79.0691 45.1462L78.4495 44.5631C77.6842 43.8342 75.9348 42.4493 75.5339 42.2671C75.2788 42.1213 75.2424 42.1213 75.0602 42.3035C74.9144 42.4493 74.8779 42.6679 74.8779 43.7249C74.8415 45.3649 74.6228 46.3853 74.0761 47.4422C73.7846 47.9889 73.7481 47.8796 74.0033 47.26C74.1855 46.7862 74.2219 46.5676 74.2219 45.0004C74.2219 41.8297 73.8575 41.0644 71.6343 39.7888C71.0877 39.4608 70.1401 38.987 69.5934 38.7319C69.0103 38.4768 68.573 38.2581 68.6094 38.2581C68.6823 38.1852 70.8325 38.8048 71.6708 39.1692C72.9463 39.6795 73.165 39.7159 73.3108 39.6795C73.4201 39.5701 73.493 39.2786 73.5295 38.3675Z" fill="white"/>
<path d="M47.8723 43.7977C46.3416 41.6839 45.3576 38.4039 45.5762 35.9621L45.6491 35.1967L46.0136 35.2696C46.6696 35.379 47.7994 35.8163 48.346 36.1443C49.8038 37.019 50.4598 38.2217 51.0794 41.2102C51.2616 42.0848 51.5167 43.1053 51.6261 43.4333C51.8083 43.98 52.5008 45.2555 53.0839 46.0573C53.4848 46.6404 53.2297 46.932 52.3185 46.8591C50.9336 46.7133 49.0749 45.4378 47.8723 43.7977Z" fill="white"/>
<path d="M71.6708 59.6513C64.4547 56.7357 61.9035 54.221 61.9035 49.9569C61.9035 49.3374 61.94 48.8271 61.94 48.8271C61.9764 48.8271 62.2315 49.0458 62.5596 49.3009C64.0173 50.4672 65.6574 50.9774 70.213 51.6334C72.8735 52.0343 74.4041 52.3259 75.789 52.7996C80.1989 54.2574 82.9323 57.2459 83.5883 61.2913C83.7705 62.4575 83.6611 64.6807 83.3696 65.8469C83.1145 66.758 82.3856 68.4345 82.2034 68.4709C82.1669 68.4709 82.094 68.2887 82.094 67.9972C82.0211 66.4665 81.2558 65.0087 79.9802 63.8789C78.4495 62.5669 76.4815 61.5829 71.6708 59.6513Z" fill="white"/>
<path d="M66.5685 60.854C66.4956 60.3073 66.3134 59.6148 66.204 59.3233L66.0218 58.7766L66.3498 59.1775C66.8236 59.7242 67.1881 60.3802 67.5161 61.2913C67.7712 61.9837 67.7712 62.2024 67.7712 63.3322C67.7712 64.4256 67.7347 64.6807 67.5161 65.3002C67.1516 66.2842 66.7143 66.9767 65.9854 67.742C64.6734 69.0905 62.9604 69.8194 60.5186 70.1474C60.0813 70.1839 58.8422 70.2932 57.7488 70.3661C55.0155 70.5119 53.1932 70.8034 51.5532 71.3865C51.3345 71.4594 51.1159 71.5323 51.0794 71.4959C51.0065 71.423 52.1363 70.767 53.0474 70.3296C54.323 69.7101 55.635 69.3821 58.5142 68.8718C59.9355 68.6532 61.3933 68.3616 61.7578 68.2158C65.3658 67.086 67.1516 64.2798 66.5685 60.854Z" fill="white"/>
<path d="M69.885 66.7216C68.9374 64.6442 68.7187 62.6762 69.229 60.8175C69.3019 60.6353 69.3747 60.4531 69.4476 60.4531C69.5205 60.4531 69.7392 60.5624 69.9579 60.7082C70.3952 60.9997 71.3063 61.51 73.6388 62.7855C76.5908 64.3891 78.2673 65.6282 79.4335 67.0496C80.454 68.2887 81.0736 69.7101 81.3651 71.4594C81.5473 72.4434 81.438 74.8124 81.1829 75.7964C80.3811 78.8942 78.5589 81.3724 75.8984 82.7938C75.4975 83.0125 75.1695 83.1582 75.133 83.1582C75.0966 83.1582 75.2424 82.7938 75.461 82.3565C76.3357 80.4978 76.4451 78.712 75.789 76.7075C75.3882 75.4684 74.5499 73.9741 72.8735 71.4594C70.869 68.5438 70.3952 67.7785 69.885 66.7216Z" fill="white"/>
<path d="M42.7335 77.8737C45.4304 75.6141 48.7469 74.0106 51.8083 73.5003C53.1203 73.2817 55.307 73.3546 56.5097 73.6826C58.4413 74.1928 60.1906 75.2861 61.1018 76.6346C61.9764 77.9466 62.3773 79.0764 62.7782 81.5911C62.924 82.5751 63.1062 83.5956 63.1427 83.8142C63.4342 85.1263 64.0173 86.1467 64.7462 86.6934C65.876 87.5316 67.8441 87.5681 69.7756 86.8392C70.1036 86.7298 70.3952 86.6205 70.3952 86.6569C70.4681 86.7298 69.4841 87.3858 68.8281 87.7139C67.917 88.1876 67.1881 88.3334 66.204 88.3334C64.4547 88.3334 62.9604 87.4223 61.7578 85.6C61.5026 85.2356 60.9924 84.1787 60.5551 83.1947C59.2795 80.2426 58.6235 79.368 57.1293 78.384C55.8172 77.5457 54.1408 77.3635 52.8652 77.9831C51.1887 78.7848 50.7514 80.9351 51.9176 82.2471C52.3914 82.7938 53.2661 83.2311 53.995 83.3405C55.3435 83.5227 56.5097 82.4658 56.5097 81.1173C56.5097 80.2426 56.1817 79.7324 55.307 79.3315C54.1408 78.8213 52.8652 79.4044 52.9016 80.5342C52.9016 81.008 53.1203 81.2995 53.5941 81.5182C53.8857 81.664 53.8857 81.664 53.667 81.6275C52.6101 81.4089 52.355 80.0969 53.1932 79.2586C54.2137 78.2382 56.3639 78.6755 57.0928 80.0969C57.3844 80.68 57.4208 81.8462 57.1657 82.5751C56.5461 84.1787 54.7968 85.0169 53.011 84.5431C51.8083 84.2151 51.2981 83.8871 49.8403 82.3929C47.2891 79.7689 46.3051 79.2586 42.6606 78.712L41.9682 78.6026L42.7335 77.8737Z" fill="white"/>
<path fill-rule="evenodd" clip-rule="evenodd" d="M23.5635 19.2339C32.0552 29.5478 45.1389 45.5835 45.7949 46.4582C46.3416 47.1871 46.1229 47.8796 45.2118 48.3898C44.7015 48.6814 43.6446 48.9729 43.1344 48.9729C42.5513 48.9729 41.8588 48.6814 41.3851 48.2076C41.0571 47.8796 39.6357 45.8022 36.4286 40.8093C33.9867 36.9825 31.9094 33.8118 31.8729 33.7754C31.7272 33.7025 31.7272 33.7025 36.1734 41.6475C38.9797 46.6404 39.8908 48.4262 39.8908 48.6449C39.8908 49.1187 39.745 49.3738 39.1619 50.0298C38.1779 51.1232 37.7406 52.3623 37.4126 54.9499C37.0481 57.829 36.0641 59.8699 33.2578 63.3322C31.6178 65.3731 31.3627 65.7376 30.9618 66.5758C30.4516 67.5963 30.3058 68.1794 30.2329 69.4914C30.16 70.8763 30.3058 71.751 30.7067 73.063C31.0712 74.2292 31.472 74.9946 32.4561 76.4888C33.2943 77.8008 33.8045 78.7848 33.8045 79.1493C33.8045 79.4409 33.8774 79.4409 35.1894 79.1493C38.3237 78.4204 40.9113 77.1813 42.3326 75.6506C43.2073 74.703 43.426 74.1928 43.426 72.8808C43.426 72.0425 43.3895 71.8603 43.1709 71.3501C42.8064 70.5483 42.114 69.8923 40.6197 68.8718C38.6517 67.5234 37.8135 66.43 37.5948 64.9722C37.4126 63.7331 37.6312 62.8949 38.7246 60.5988C39.8544 58.2299 40.1459 57.2459 40.3282 54.8405C40.4375 53.3099 40.6197 52.6903 41.0571 52.2165C41.5308 51.7063 41.9317 51.5241 43.0615 51.3783C44.9202 51.1232 46.1229 50.6494 47.0705 49.7383C47.9087 48.9729 48.2731 48.2076 48.3096 47.0778L48.346 46.2396L47.8723 45.7293C46.1593 43.7613 22.4337 17.6667 22.3244 17.6667C22.2879 17.6667 22.871 18.3592 23.5635 19.2339ZM34.7521 71.0585C35.153 70.3661 34.9343 69.4914 34.2783 69.0541C33.6587 68.6532 32.7112 68.8354 32.7112 69.3821C32.7112 69.5278 32.7841 69.6736 33.0027 69.7465C33.3307 69.9287 33.3672 70.111 33.1121 70.5119C32.857 70.9128 32.857 71.2772 33.185 71.5323C33.6952 71.9332 34.3876 71.7145 34.7521 71.0585Z" fill="white"/>
<path fill-rule="evenodd" clip-rule="evenodd" d="M49.5123 51.8885C48.6376 52.1436 47.7994 53.0912 47.5442 54.0388C47.3985 54.6219 47.4714 55.6788 47.7265 56.0068C48.1274 56.517 48.4918 56.6628 49.5123 56.6628C51.5167 56.6628 53.2297 55.7881 53.4119 54.7312C53.5941 53.8565 52.8288 52.6539 51.7719 52.1072C51.2252 51.8156 50.0954 51.7063 49.5123 51.8885ZM51.8447 53.7108C52.1363 53.2734 52.027 52.7996 51.4803 52.4716C50.4963 51.8521 49.002 52.3623 49.002 53.3099C49.002 53.7836 49.7674 54.2939 50.4963 54.2939C50.9701 54.2939 51.6261 54.0023 51.8447 53.7108Z" fill="white"/>
</svg>
