<svg width="106" height="106" viewBox="0 0 106 106" fill="none" xmlns="http://www.w3.org/2000/svg">
<g clip-path="url(#clip0_1644_32527)">
<path d="M53 106C82.2711 106 106 82.2711 106 53C106 23.7289 82.2711 0 53 0C23.7289 0 0 23.7289 0 53C0 82.2711 23.7289 106 53 106Z" fill="url(#paint0_linear_1644_32527)"/>
<path d="M76.1943 74.1179L58.2727 30.789C57.2619 28.5488 55.7593 27.4561 53.7786 27.4561H52.1941C50.2134 27.4561 48.7108 28.5488 47.7 30.789L39.9003 49.6669H33.9992C32.2371 49.6805 30.8028 51.1012 30.7892 52.8769V52.9179C30.8028 54.68 32.2371 56.1143 33.9992 56.128H37.1683L29.7237 74.1179C29.5871 74.514 29.5052 74.9238 29.5052 75.3473C29.5052 76.3581 29.8193 77.1504 30.3794 77.7651C30.9394 78.3798 31.7454 78.6803 32.7562 78.6803C33.4255 78.6666 34.0675 78.4617 34.6003 78.0656C35.174 77.6695 35.5701 77.0957 35.8843 76.4401L44.0802 56.1143H49.7626C51.5247 56.1006 52.959 54.68 52.9727 52.9043V52.8223C52.959 51.0602 51.5247 49.6259 49.7626 49.6122H46.7302L52.9863 34.0264L70.0338 76.4264C70.3479 77.0821 70.7441 77.6558 71.3178 78.0519C71.8505 78.4481 72.5062 78.653 73.1619 78.6666C74.1727 78.6666 74.965 78.3661 75.5387 77.7514C76.1124 77.1367 76.4129 76.3445 76.4129 75.3336C76.4266 74.9238 76.3582 74.5004 76.1943 74.1179Z" fill="white"/>
</g>
<defs>
<linearGradient id="paint0_linear_1644_32527" x1="92.516" y1="19.7502" x2="13.652" y2="86.1062" gradientUnits="userSpaceOnUse">
<stop stop-color="#B6509E"/>
<stop offset="1" stop-color="#2EBAC6"/>
</linearGradient>
<clipPath id="clip0_1644_32527">
<rect width="106" height="106" fill="white"/>
</clipPath>
</defs>
</svg>
