<svg width="107" height="106" viewBox="0 0 107 106" fill="none" xmlns="http://www.w3.org/2000/svg">
<rect x="0.500488" width="106" height="106" rx="53" fill="white"/>
<path d="M69.5418 63.1869C71.6672 66.0429 73.859 68.9654 76.0509 71.8878C71.6672 77.0685 66.2208 80.3895 59.6453 81.7843C52.3391 83.3119 45.4315 82.1828 38.7232 78.4633C44.7009 74.0132 50.5458 69.6296 56.4571 65.2459C57.7855 66.5078 59.0475 67.7698 60.3095 68.9654C61.7043 70.2937 61.1729 70.3602 62.9662 69.3639C65.4238 67.9691 67.4828 66.0429 69.0768 63.7182C69.1432 63.5854 69.2761 63.4525 69.3425 63.3197C69.2761 63.3197 69.3425 63.3197 69.5418 63.1869ZM43.4389 69.0318C41.7785 70.2938 40.2508 71.4229 38.7232 72.6184C37.594 73.4819 36.4649 74.2789 35.3358 75.1424C34.8708 75.5409 34.5387 75.5409 34.0074 75.0759C28.9595 70.5594 25.7714 64.9802 24.5758 58.3382C23.3803 51.6299 24.443 45.2536 27.6311 39.2095C27.6975 39.0766 27.8304 38.8774 27.8968 38.7445C27.8968 38.6781 27.9632 38.6781 28.0961 38.6117C32.4797 44.3902 36.9298 50.1687 41.3135 55.9472C41.1807 56.1464 41.1143 56.2793 40.9814 56.4121C39.653 57.8069 38.3246 59.2017 36.9298 60.5301C36.5313 60.9286 36.4649 61.2607 36.7306 61.7256C38.1254 64.3824 40.0515 66.5743 42.4426 68.3676C42.7747 68.5668 43.0404 68.7661 43.4389 69.0318ZM68.2134 27.7853C66.0879 29.313 63.9625 30.8406 61.8371 32.3019C58.184 34.8922 54.531 37.549 50.9443 40.1393C50.4794 40.4714 50.1473 40.5379 49.7488 40.0729C48.5532 38.811 47.2913 37.6818 46.0957 36.4199C45.7636 36.0878 45.4315 36.0213 44.9666 36.2206C42.1105 37.6818 39.8523 39.7408 37.9925 42.3312C37.8597 42.464 37.7269 42.6633 37.594 42.8625C36.5313 41.4677 35.535 40.2058 34.5387 38.8774C33.476 37.4826 32.4797 36.0878 31.4834 34.7594C31.1514 34.2944 31.0849 33.9623 31.5499 33.4974C36.6642 27.8517 42.974 24.5308 50.5458 23.7337C56.5236 23.0696 62.2356 24.2651 67.5492 27.1211C67.7484 27.254 67.9477 27.3204 68.147 27.4532C68.147 27.6525 68.1469 27.7189 68.2134 27.7853ZM79.0397 67.637C77.6449 65.8436 76.383 64.1832 75.121 62.5227C72.1985 58.6703 69.2761 54.7516 66.2872 50.8993C65.8887 50.3679 65.8887 50.0358 66.3536 49.5709C67.6156 48.3089 68.8111 47.047 70.0731 45.785C70.4052 45.4529 70.538 45.1208 70.2724 44.6559C68.8111 41.8662 66.8186 39.5416 64.2282 37.6818C64.029 37.549 63.8297 37.3497 63.564 37.2169C63.7633 37.0176 63.9625 36.8848 64.0954 36.7519C66.6193 34.8258 69.1432 32.966 71.6672 31.0399C72.0657 30.7078 72.3978 30.5749 72.8627 31.0399C79.1726 36.7519 82.56 43.8588 82.8921 52.4269C83.0249 57.4084 81.8958 62.1242 79.6375 66.5743C79.4382 66.8399 79.239 67.172 79.0397 67.637Z" fill="#231815"/>
</svg>
