<svg width="106" height="106" viewBox="0 0 106 106" fill="none" xmlns="http://www.w3.org/2000/svg">
<g clip-path="url(#clip0_1644_32516)">
<path d="M52.9998 106C82.2717 106 106 82.2719 106 53C106 23.7281 82.2717 0 52.9998 0C23.7279 0 -0.000244141 23.7281 -0.000244141 53C-0.000244141 82.2719 23.7279 106 52.9998 106Z" fill="#060729"/>
<path fill-rule="evenodd" clip-rule="evenodd" d="M30.6179 70.7708C29.0332 69.8009 28.0633 68.0784 28.0633 66.2234V55.8672C28.0633 54.6376 29.065 53.6412 30.2946 53.6465C30.6868 53.6465 31.0737 53.7525 31.4129 53.9486L54.7806 67.5749C56.148 68.3699 56.9907 69.8327 56.9907 71.4174V82.1446C56.996 83.618 55.8035 84.8158 54.3301 84.8158C53.8372 84.8158 53.3496 84.678 52.9309 84.4236L30.6179 70.7708ZM65.4495 51.1131C66.8169 51.9081 67.6543 53.3762 67.6596 54.9556V76.728C67.6596 77.3693 67.3151 77.9629 66.7533 78.2756L61.6388 81.1535C61.5752 81.1906 61.5063 81.2171 61.4321 81.2383V69.149C61.4321 67.5855 60.6106 66.1333 59.2644 65.3277L38.7428 53.0529V39.4054C38.7428 38.1758 39.7445 37.1794 40.9741 37.1847C41.3663 37.1847 41.7532 37.2907 42.0924 37.4868L65.4495 51.1131ZM75.6785 35.0329C77.0512 35.8279 77.8939 37.296 77.8939 38.8807V70.6807C77.8886 71.3326 77.5282 71.9315 76.9558 72.2442L72.1063 74.8624V52.7243C72.1063 51.1608 71.2848 49.7139 69.9492 48.9083L48.9718 36.3261V23.3835C48.9718 22.9913 49.0778 22.6044 49.2686 22.2652C49.8887 21.2052 51.2508 20.8448 52.3108 21.4596L75.6785 35.0329Z" fill="#00D395"/>
</g>
<defs>
<clipPath id="clip0_1644_32516">
<rect width="106" height="106" fill="white" transform="translate(-0.000244141)"/>
</clipPath>
</defs>
</svg>
