<svg width="32" height="32" viewBox="0 0 32 32" fill="none" xmlns="http://www.w3.org/2000/svg">
<path d="M9.37226 28H4.39644V11.9764H9.37226V28ZM6.88167 9.79066C5.29056 9.79066 4 8.47278 4 6.88167C4 6.1174 4.3036 5.38444 4.84402 4.84402C5.38444 4.3036 6.1174 4 6.88167 4C7.64594 4 8.3789 4.3036 8.91932 4.84402C9.45974 5.38444 9.76334 6.1174 9.76334 6.88167C9.76334 8.47278 8.47224 9.79066 6.88167 9.79066ZM27.9952 28H23.0301V20.1998C23.0301 18.3409 22.9926 15.9569 20.443 15.9569C17.856 15.9569 17.4596 17.9766 17.4596 20.0659V28H12.4891V11.9764H17.2614V14.1622H17.331C17.9953 12.9032 19.618 11.5746 22.039 11.5746C27.0748 11.5746 28.0005 14.8908 28.0005 19.198V28H27.9952Z" fill="white"/>
</svg>
