<svg width="32" height="32" viewBox="0 0 32 32" fill="none" xmlns="http://www.w3.org/2000/svg">
<path d="M16.0029 9.8467C12.5969 9.8467 9.84962 12.594 9.84962 16C9.84962 19.406 12.5969 22.1533 16.0029 22.1533C19.4089 22.1533 22.1562 19.406 22.1562 16C22.1562 12.594 19.4089 9.8467 16.0029 9.8467ZM16.0029 20.0004C13.8019 20.0004 12.0025 18.2064 12.0025 16C12.0025 13.7936 13.7965 11.9996 16.0029 11.9996C18.2093 11.9996 20.0034 13.7936 20.0034 16C20.0034 18.2064 18.204 20.0004 16.0029 20.0004ZM23.8431 9.595C23.8431 10.3929 23.2005 11.0302 22.4079 11.0302C21.61 11.0302 20.9727 10.3876 20.9727 9.595C20.9727 8.80241 21.6153 8.15977 22.4079 8.15977C23.2005 8.15977 23.8431 8.80241 23.8431 9.595ZM27.9186 11.0517C27.8275 9.12909 27.3884 7.42608 25.9799 6.02298C24.5768 4.61988 22.8738 4.18074 20.9513 4.08435C18.9698 3.97188 13.0307 3.97188 11.0492 4.08435C9.132 4.17539 7.429 4.61453 6.02054 6.01763C4.61209 7.42073 4.1783 9.12373 4.08191 11.0463C3.96944 13.0278 3.96944 18.9669 4.08191 20.9483C4.17295 22.8709 4.61209 24.5739 6.02054 25.977C7.429 27.3801 9.12665 27.8193 11.0492 27.9157C13.0307 28.0281 18.9698 28.0281 20.9513 27.9157C22.8738 27.8246 24.5768 27.3855 25.9799 25.977C27.383 24.5739 27.8222 22.8709 27.9186 20.9483C28.031 18.9669 28.031 13.0331 27.9186 11.0517ZM25.3587 23.0744C24.941 24.1241 24.1323 24.9327 23.0773 25.3558C21.4975 25.9824 17.7488 25.8378 16.0029 25.8378C14.2571 25.8378 10.503 25.977 8.9285 25.3558C7.87885 24.9381 7.07019 24.1294 6.64712 23.0744C6.02054 21.4946 6.16514 17.7458 6.16514 16C6.16514 14.2542 6.0259 10.5001 6.64712 8.92558C7.06484 7.87593 7.87349 7.06728 8.9285 6.6442C10.5083 6.01763 14.2571 6.16222 16.0029 6.16222C17.7488 6.16222 21.5029 6.02298 23.0773 6.6442C24.127 7.06192 24.9356 7.87058 25.3587 8.92558C25.9853 10.5054 25.8407 14.2542 25.8407 16C25.8407 17.7458 25.9853 21.4999 25.3587 23.0744Z" fill="white"/>
</svg>
