<svg width="219" height="219" viewBox="0 0 219 219" fill="none" xmlns="http://www.w3.org/2000/svg">
<path opacity="0.05" d="M100.316 2.80431C106.196 0.36845 112.804 0.368449 118.684 2.8043L178.451 27.5604C184.332 29.9963 189.004 34.6684 191.44 40.5491L216.196 100.316C218.632 106.196 218.632 112.804 216.196 118.684L191.44 178.451C189.004 184.332 184.332 189.004 178.451 191.44L118.684 216.196C112.804 218.632 106.196 218.632 100.316 216.196L40.5491 191.44C34.6684 189.004 29.9963 184.332 27.5604 178.451L2.80431 118.684C0.36845 112.804 0.368449 106.196 2.8043 100.316L27.5604 40.5491C29.9963 34.6684 34.6684 29.9963 40.5491 27.5604L100.316 2.80431Z" fill="#060729"/>
</svg>
