<svg width="40" height="40" viewBox="0 0 40 40" fill="none" xmlns="http://www.w3.org/2000/svg">
<path d="M35 18.3333V10C30.5555 10 26.1111 10 21.6667 10M21.6667 10L26.6667 15M21.6667 10L26.6667 5M4.99999 21.6667V30C9.44443 30 13.8889 30 18.3333 30M18.3333 30L13.3333 25M18.3333 30L13.3333 35M4.99988 5H15C15 8.33333 15 11.6667 15 15C11.6667 15 8.33332 15 4.99999 15C4.99999 11.6667 5.00035 8.33333 4.99988 5ZM25 25H34.9999C34.9999 28.3333 35.0004 31.6667 34.9999 35H24.9999C24.9999 31.6667 25 28.3333 25 25Z" stroke="#060729" stroke-width="2.5" stroke-linecap="square"/>
</svg>
