<svg width="40" height="40" viewBox="0 0 40 40" fill="none" xmlns="http://www.w3.org/2000/svg">
<path d="M18.3334 17.0833H17.0834V18.3333V21.6667V22.9167H18.3334H21.6667H22.9167V21.6667V18.3333V17.0833H21.6667H18.3334ZM5.43175 24.9742L4.34923 25.5992L4.97424 26.6817L6.64091 29.5684L7.26592 30.6509L8.34844 30.0259L11.2351 28.3592L12.3176 27.7342L11.6926 26.6517L10.026 23.765L9.40094 22.6825L8.31842 23.3075L5.43175 24.9742ZM18.3334 30.4167H17.0834V31.6667V35V36.25H18.3334H21.6667H22.9167V35V31.6667V30.4167H21.6667H18.3334ZM31.6818 23.3075L30.5993 22.6825L29.9742 23.765L28.3076 26.6517L27.6826 27.7342L28.7651 28.3592L31.6517 30.0259L32.7343 30.6509L33.3593 29.5684L35.0259 26.6817L35.651 25.5992L34.5684 24.9742L31.6818 23.3075ZM28.7651 11.6409L27.6826 12.2659L28.3076 13.3484L29.9742 16.2351L30.5993 17.3176L31.6818 16.6926L34.5684 15.0259L35.651 14.4009L35.0259 13.3184L33.3593 10.4317L32.7343 9.34918L31.6517 9.9742L28.7651 11.6409ZM18.3334 3.75H17.0834V5V8.33333V9.58333H18.3334H21.6667H22.9167V8.33333V5V3.75H21.6667H18.3334ZM4.97424 13.3184L4.34923 14.4009L5.43175 15.0259L8.31842 16.6926L9.40094 17.3176L10.026 16.2351L11.6926 13.3484L12.3176 12.2659L11.2351 11.6409L8.34844 9.9742L7.26592 9.34918L6.64091 10.4317L4.97424 13.3184Z" stroke="#060729" stroke-width="2.5" stroke-linecap="square"/>
</svg>
