<svg width="32" height="32" viewBox="0 0 32 32" fill="none" xmlns="http://www.w3.org/2000/svg">
<path fill-rule="evenodd" clip-rule="evenodd" d="M7.51562 7.51469C9.76375 5.26506 12.8181 4 16 4C19.1819 4 22.2363 5.26506 24.4844 7.51469C26.7344 9.76431 28 12.8187 28 16C28 19.1813 26.7344 22.2357 24.4844 24.4853C22.2363 26.7349 19.1819 28 16 28C12.8181 28 9.76375 26.7349 7.51562 24.4853C5.26562 22.2357 4 19.1813 4 16C4 12.8187 5.26562 9.76431 7.51562 7.51469ZM16.4294 12.859C15.2631 13.3444 12.9306 14.3492 9.43189 15.8732C8.86377 16.0991 8.56559 16.3202 8.53934 16.5362C8.49318 16.9011 8.95016 17.045 9.57108 17.2406C9.65626 17.2674 9.74453 17.2952 9.835 17.3246C10.4481 17.5238 11.2731 17.7568 11.7006 17.766C12.0906 17.7745 12.5237 17.6141 13.0018 17.2853C16.2718 15.079 17.9574 13.9637 18.0643 13.9397C18.1393 13.9228 18.2425 13.9015 18.3119 13.9639C18.3831 14.0261 18.3756 14.1443 18.3681 14.176C18.3239 14.3687 16.5355 16.0314 15.605 16.8966C15.3124 17.1686 15.1046 17.3617 15.0625 17.4056C14.9683 17.5035 14.8723 17.596 14.78 17.685C14.211 18.2335 13.7841 18.645 14.8037 19.3168C15.2982 19.6425 15.6928 19.9113 16.0872 20.1799C16.5109 20.4686 16.9345 20.7571 17.4812 21.1157C17.6218 21.2078 17.756 21.3035 17.8868 21.3967C18.3838 21.751 18.8303 22.0693 19.3825 22.0186C19.7031 21.9891 20.035 21.6876 20.2019 20.7883C20.5994 18.663 21.3813 14.0584 21.5613 12.1609C21.5781 11.9948 21.5575 11.782 21.5425 11.6886C21.5256 11.5952 21.4918 11.4621 21.3718 11.3636C21.2275 11.2468 21.0062 11.2223 20.9068 11.224C20.455 11.232 19.7631 11.4728 16.4294 12.859Z" fill="white"/>
</svg>
