<svg width="32" height="32" viewBox="0 0 32 32" fill="none" xmlns="http://www.w3.org/2000/svg">
<path d="M25.5331 11.1118C25.5483 11.325 25.5483 11.5382 25.5483 11.7514C25.5483 18.2539 20.5991 25.7463 11.5533 25.7463C8.7665 25.7463 6.17768 24.9392 4 23.5382C4.39595 23.5839 4.77663 23.5991 5.18782 23.5991C7.48728 23.5991 9.60407 22.8225 11.2944 21.4976C9.13199 21.4519 7.31979 20.0357 6.69542 18.0864C7.00001 18.1321 7.30456 18.1625 7.62439 18.1625C8.066 18.1625 8.50766 18.1016 8.9188 17.9951C6.66499 17.5382 4.97458 15.5585 4.97458 13.1676V13.1067C5.62938 13.4722 6.39087 13.7006 7.19792 13.7311C5.87304 12.8478 5.00505 11.3402 5.00505 9.63459C5.00505 8.7209 5.24866 7.88333 5.67508 7.15236C8.09642 10.1371 11.736 12.0864 15.8172 12.2996C15.7411 11.9341 15.6954 11.5534 15.6954 11.1727C15.6954 8.46201 17.8883 6.25391 20.6142 6.25391C22.0304 6.25391 23.3096 6.84781 24.2081 7.80721C25.3198 7.59402 26.3858 7.18283 27.33 6.61939C26.9644 7.76155 26.1878 8.72095 25.1675 9.33004C26.1574 9.2235 27.1168 8.94932 28 8.56865C27.3301 9.54323 26.4924 10.4112 25.5331 11.1118Z" fill="white"/>
</svg>
