<svg width="28" height="28" viewBox="0 0 28 28" fill="none" xmlns="http://www.w3.org/2000/svg">
<g opacity="0.5" clip-path="url(#clip0_3681_8207)">
<path d="M4.54811 19.8293C4.71708 19.6604 4.94941 19.5618 5.19583 19.5618H27.5423C27.9507 19.5618 28.1548 20.0546 27.8662 20.3433L23.4518 24.7577C23.2828 24.9266 23.0505 25.0252 22.8041 25.0252H0.457586C0.0492377 25.0252 -0.154936 24.5324 0.133724 24.2437L4.54811 19.8293Z" fill="white"/>
<path d="M4.54811 3.34762C4.72412 3.17864 4.95645 3.08008 5.19583 3.08008H27.5423C27.9507 3.08008 28.1548 3.57291 27.8662 3.86157L23.4518 8.27595C23.2828 8.44493 23.0505 8.54349 22.8041 8.54349H0.457586C0.0492377 8.54349 -0.154936 8.05066 0.133724 7.762L4.54811 3.34762Z" fill="white"/>
<path d="M23.4518 11.5357C23.2828 11.3667 23.0505 11.2682 22.8041 11.2682H0.457586C0.0492377 11.2682 -0.154936 11.761 0.133724 12.0497L4.54811 16.464C4.71708 16.633 4.94941 16.7316 5.19583 16.7316H27.5423C27.9507 16.7316 28.1548 16.2387 27.8662 15.9501L23.4518 11.5357Z" fill="white"/>
</g>
<defs>
<clipPath id="clip0_3681_8207">
<rect width="28" height="28" fill="white"/>
</clipPath>
</defs>
</svg>
