<svg width="28" height="28" viewBox="0 0 28 28" fill="none" xmlns="http://www.w3.org/2000/svg">
<g opacity="0.5" clip-path="url(#clip0_1641_25304)">
<path d="M21.9598 0.038576C20.3605 0.0373345 18.8261 0.670704 17.6934 1.79965C16.5606 2.9286 15.9221 4.46088 15.918 6.06013V12.7366C15.2958 12.7786 14.6596 12.805 14 12.805C13.3404 12.805 12.7073 12.8315 12.082 12.8688V6.06013C12.0566 4.47475 11.4089 2.9629 10.2788 1.85075C9.14863 0.738604 7.62659 0.115296 6.041 0.115296C4.45541 0.115296 2.93337 0.738604 1.80323 1.85075C0.673091 2.9629 0.0254412 4.47475 0 6.06013V22.017C0.0254412 23.6024 0.673091 25.1143 1.80323 26.2264C2.93337 27.3385 4.45541 27.9619 6.041 27.9619C7.62659 27.9619 9.14863 27.3385 10.2788 26.2264C11.4089 25.1143 12.0566 23.6024 12.082 22.017V15.3406C12.7042 15.2986 13.3404 15.2721 14 15.2721C14.6596 15.2721 15.2927 15.2457 15.918 15.2084V22.017C15.9434 23.6024 16.5911 25.1143 17.7212 26.2264C18.8514 27.3385 20.3734 27.9619 21.959 27.9619C23.5446 27.9619 25.0666 27.3385 26.1968 26.2264C27.3269 25.1143 27.9746 23.6024 28 22.017V6.06013C27.9959 4.46115 27.3576 2.92911 26.2252 1.8002C25.0928 0.671298 23.5588 0.0377467 21.9598 0.038576ZM6.04022 2.50569C6.98405 2.50527 7.8895 2.87928 8.5579 3.54564C9.22631 4.21201 9.60308 5.11631 9.60556 6.06013V13.1301C7.83811 13.3862 6.11213 13.8742 4.47222 14.5815C3.7617 14.8933 3.09283 15.2925 2.48111 15.7699V6.06013C2.48358 5.11738 2.8595 4.21403 3.52656 3.54784C4.19362 2.88165 5.09747 2.50692 6.04022 2.50569ZM9.60556 22.017C9.60556 22.9626 9.22992 23.8695 8.56129 24.5381C7.89266 25.2067 6.98581 25.5824 6.04022 25.5824C5.09464 25.5824 4.18778 25.2067 3.51915 24.5381C2.85052 23.8695 2.47489 22.9626 2.47489 22.017V20.4164C2.47489 19.0024 3.59489 17.663 5.47244 16.8292C6.7954 16.2585 8.18352 15.8525 9.60556 15.6206V22.017ZM21.9598 25.5715C21.016 25.5719 20.1105 25.1979 19.4421 24.5315C18.7737 23.8651 18.3969 22.9608 18.3944 22.017V14.947C20.1619 14.6909 21.8879 14.2029 23.5278 13.4957C24.2383 13.1838 24.9072 12.7846 25.5189 12.3072V22.017C25.5164 22.9598 25.1405 23.8631 24.4734 24.5293C23.8064 25.1955 22.9025 25.5702 21.9598 25.5715ZM22.5276 11.2386C21.2046 11.8093 19.8165 12.2153 18.3944 12.4472V6.06013C18.3944 5.11455 18.7701 4.20769 19.4387 3.53906C20.1073 2.87043 21.0142 2.4948 21.9598 2.4948C22.9054 2.4948 23.8122 2.87043 24.4809 3.53906C25.1495 4.20769 25.5251 5.11455 25.5251 6.06013V7.6608C25.5251 9.06858 24.4051 10.4079 22.5276 11.2386Z" fill="white"/>
</g>
<defs>
<clipPath id="clip0_1641_25304">
<rect width="28" height="28" fill="white"/>
</clipPath>
</defs>
</svg>
