<svg width="28" height="28" viewBox="0 0 28 28" fill="none" xmlns="http://www.w3.org/2000/svg">
<g opacity="0.5">
<path d="M13.8348 0C8.05226 0 3.36819 4.68794 3.36432 10.4705C3.36432 11.1319 3.42621 11.7933 3.54998 12.4432L4.90376 11.5187C7.28254 9.88645 11.1389 9.88645 13.5138 11.5187L14.9333 12.4934L15.703 13.0233C17.8459 14.4932 21.3193 14.4932 23.4583 13.0233L24.0887 12.594C25.2491 6.92748 21.5978 1.39246 15.9313 0.228208C15.2428 0.0850947 14.5427 0.0154718 13.8387 0.0154718L13.8348 0Z" fill="white"/>
<path d="M19.718 16.7598C18.2211 16.7868 16.7513 16.3691 15.4981 15.5607L13.3127 14.0638C10.8875 12.5747 7.82793 12.5747 5.39887 14.0638L3.98707 15.0308C3.70858 15.2242 3.32565 15.1507 3.13226 14.8722C2.93886 14.5937 3.01235 14.2108 3.29084 14.0174L4.70264 13.0504C7.54944 11.2828 11.1544 11.2828 14.0012 13.0504L16.1865 14.5473C18.3487 15.874 21.0756 15.874 23.2378 14.5473L24.0655 13.9787C24.344 13.7853 24.727 13.8588 24.9203 14.1373C25.1137 14.4158 25.0403 14.7987 24.7618 14.9921L23.934 15.5607C22.6808 16.3652 21.211 16.783 19.718 16.7598Z" fill="white"/>
<path d="M9.30937 21.1576V15.2397C9.30551 15.1159 9.30937 14.9921 9.32485 14.8683C9.36353 14.5318 9.64975 14.2766 9.99013 14.2766C10.3189 14.2882 10.5858 14.5396 10.6167 14.8683C10.6438 15.0733 10.6477 15.2822 10.6399 15.4872V27.2844C10.6554 27.6674 10.3576 27.9845 9.97466 28C9.97079 28 9.96692 28 9.96306 28C9.58787 27.9807 9.30164 27.6596 9.32098 27.2844C9.32098 27.2728 9.32098 27.2612 9.32485 27.2535V23.3159L9.30937 21.1576Z" fill="white"/>
<path d="M8.06777 18.1793V21.1189C8.06777 21.6218 7.79315 21.9467 7.41796 21.9467C7.04664 21.9467 6.74881 21.5947 6.74494 21.1189V15.2358C6.74494 14.7214 7.04664 14.3733 7.4373 14.4081C7.82796 14.4429 8.06004 14.7368 8.06391 15.2551C8.06777 16.2183 8.06777 17.1968 8.06777 18.1793Z" fill="white"/>
<path d="M11.8854 16.1138C11.8854 15.6342 12.1407 15.3248 12.5197 15.3248C12.9104 15.3441 13.216 15.6768 13.1966 16.0674C13.1966 16.0751 13.1966 16.0868 13.1966 16.0945C13.2082 17.4986 13.2082 18.9026 13.1966 20.3105C13.1966 20.7902 12.922 21.0803 12.5236 21.0725C12.1291 21.0687 11.8893 20.7747 11.8854 20.2835V16.1138Z" fill="white"/>
<path d="M4.18436 16.5354C4.18436 16.0558 4.43965 15.7464 4.8187 15.7464C5.20937 15.7657 5.51493 16.0984 5.49559 16.489C5.49559 16.4968 5.49559 16.5084 5.49559 16.5161C5.5072 17.924 5.5072 19.3281 5.49559 20.736C5.49559 21.2156 5.22097 21.5019 4.82644 21.498C4.43578 21.4941 4.18823 21.2002 4.18436 20.7089V16.5354Z" fill="white"/>
<path d="M15.092 16.8449C15.4517 16.8449 15.7418 17.135 15.7418 17.4947V18.6164C15.7418 18.9761 15.4517 19.2662 15.092 19.2662C14.7322 19.2662 14.4422 18.9761 14.4422 18.6164V17.4947C14.446 17.1388 14.7361 16.8449 15.092 16.8449Z" fill="white"/>
<path d="M17.6641 17.8312C18.0239 17.8312 18.3139 18.1213 18.3139 18.481V24.7819C18.3139 25.1416 18.0239 25.4317 17.6641 25.4317C17.3044 25.4317 17.0143 25.1416 17.0143 24.7819V18.481C17.0143 18.1213 17.3044 17.8312 17.6641 17.8312Z" fill="white"/>
<path d="M20.2208 18.0749C20.5806 18.0749 20.8706 18.365 20.8706 18.7247V24.0779C20.8706 24.4376 20.5806 24.7277 20.2208 24.7277C19.8611 24.7277 19.571 24.4376 19.571 24.0779V18.7247C19.571 18.365 19.8611 18.0749 20.2208 18.0749Z" fill="white"/>
<path d="M22.8085 17.4637C23.1682 17.4637 23.4583 17.7538 23.4583 18.1136V20.4227C23.4583 20.7824 23.1682 21.0725 22.8085 21.0725C22.4488 21.0725 22.1587 20.7824 22.1587 20.4227V18.1136C22.1587 17.7538 22.4526 17.4637 22.8085 17.4637Z" fill="white"/>
</g>
</svg>
