<svg width="28" height="28" viewBox="0 0 28 28" fill="none" xmlns="http://www.w3.org/2000/svg">
<g opacity="0.5">
<path d="M18.0621 9.32783H9.9679C9.62431 9.32783 9.34266 9.60949 9.34266 9.95307V18.0472C9.34266 18.3908 9.62431 18.6725 9.9679 18.6725H18.0621C18.4057 18.6725 18.6873 18.3908 18.6873 18.0472V9.95307C18.6873 9.60949 18.4057 9.32783 18.0621 9.32783Z" fill="white"/>
<path d="M8.71941 0.0151367H0.625242C0.281659 0.0151367 1.52403e-07 0.296796 1.52403e-07 0.640378V8.73455C1.52403e-07 9.07813 0.281659 9.35979 0.625242 9.35979H8.71941C9.063 9.35979 9.34465 9.07813 9.34465 8.73455V0.640378C9.34266 0.296796 9.063 0.0151367 8.71941 0.0151367Z" fill="white"/>
<path d="M27.3748 0.015137H19.2806C18.937 0.015137 18.6553 0.296796 18.6553 0.640379V8.73455C18.6553 9.07813 18.937 9.35979 19.2806 9.35979H27.3748C27.7183 9.35979 28 9.07813 28 8.73455V0.640379C28 0.296796 27.7183 0.015137 27.3748 0.015137Z" fill="white"/>
<path d="M8.71941 18.6405H0.625242C0.281659 18.6405 0 18.9222 0 19.2658V27.3599C0 27.7035 0.281659 27.9852 0.625242 27.9852H8.71941C9.063 27.9852 9.34465 27.7035 9.34465 27.3599V19.2658C9.34266 18.9222 9.063 18.6405 8.71941 18.6405Z" fill="white"/>
<path d="M27.3748 18.6405H19.2806C18.937 18.6405 18.6553 18.9222 18.6553 19.2658V27.3599C18.6553 27.7035 18.937 27.9852 19.2806 27.9852H27.3748C27.7183 27.9852 28 27.7035 28 27.3599V19.2658C28 18.9222 27.7183 18.6405 27.3748 18.6405Z" fill="white"/>
</g>
</svg>
