<svg width="28" height="29" viewBox="0 0 28 29" fill="none" xmlns="http://www.w3.org/2000/svg">
<path d="M9.35533 3.12695L13.8092 0.554881C13.936 0.481706 14.0934 0.481706 14.2202 0.554881L25.9586 7.33204C26.0854 7.40521 26.1634 7.54058 26.1647 7.68693L26.1805 12.3481C26.1805 12.4956 26.1025 12.6323 25.9744 12.7055L21.5267 15.2738C21.2534 15.4325 20.9108 15.2348 20.9095 14.919L20.8949 10.7359C20.8949 10.5895 20.8157 10.4541 20.6888 10.381L9.35533 3.83918C9.08092 3.68064 9.08092 3.2855 9.35533 3.12695Z" fill="#010101"/>
<path d="M6.4781 24.24L2.02544 21.6692C1.89739 21.596 1.81934 21.4606 1.81934 21.313V7.7587C1.81934 7.61235 1.89739 7.47698 2.02422 7.40258L6.05369 5.05735C6.18174 4.98295 6.33907 4.98295 6.4659 5.05735L10.9137 7.62577C11.1869 7.78431 11.1881 8.17823 10.9149 8.33799L7.30009 10.4417C7.17325 10.5149 7.0952 10.6503 7.0952 10.7979V23.8851C7.0952 24.2022 6.7525 24.3986 6.4781 24.24Z" fill="#010101"/>
<path d="M26.1806 16.1701V21.3118C26.1806 21.4594 26.1026 21.5947 25.9745 21.6679L14.2361 28.4451C14.1093 28.5183 13.9532 28.5183 13.8264 28.4451L9.78104 26.1279C9.65298 26.0547 9.5737 25.9182 9.5737 25.7705V20.635C9.5737 20.3192 9.91519 20.1215 10.1896 20.2776L13.8191 22.357C13.9459 22.4302 14.102 22.429 14.2288 22.357L25.5623 15.8128C25.8366 15.6543 26.1794 15.8519 26.1794 16.1689L26.1806 16.1701Z" fill="#010101"/>
</svg>
