<svg width="28" height="29" viewBox="0 0 28 29" fill="none" xmlns="http://www.w3.org/2000/svg">
<g clip-path="url(#clip0_3681_16261)">
<path d="M22.6526 5.30319H5.37598V21.016H22.6526V5.30319Z" fill="white"/>
<path fill-rule="evenodd" clip-rule="evenodd" d="M27.9628 14.4814C27.9628 22.2031 21.7032 28.4627 13.9814 28.4627C6.25968 28.4627 0 22.2031 0 14.4814C0 6.75966 6.25968 0.499985 13.9814 0.499985C21.7032 0.499985 27.9628 6.75966 27.9628 14.4814ZM10.0195 20.0452H7.30606C6.7359 20.0452 6.45426 20.0452 6.28254 19.9354C6.09706 19.8151 5.98372 19.6159 5.96998 19.3961C5.95966 19.1935 6.1005 18.9461 6.38214 18.4515L13.0818 6.64239C13.3669 6.14092 13.5112 5.89019 13.6932 5.79746C13.889 5.69786 14.1226 5.69786 14.3183 5.79746C14.5004 5.89019 14.6446 6.14092 14.9297 6.64239L16.307 9.04667L16.314 9.05894C16.6219 9.59691 16.7781 9.86973 16.8463 10.1561C16.9218 10.4686 16.9218 10.7983 16.8463 11.1109C16.7776 11.3994 16.623 11.6742 16.3104 12.2203L12.7913 18.4412L12.7821 18.4572C12.4722 18.9996 12.3151 19.2745 12.0975 19.4819C11.8605 19.7087 11.5754 19.8734 11.2628 19.9663C10.9777 20.0452 10.6583 20.0452 10.0195 20.0452ZM16.8717 20.0452H20.7597C21.3332 20.0452 21.6218 20.0452 21.7936 19.9321C21.9791 19.8118 22.0958 19.6091 22.1062 19.3894C22.1161 19.1933 21.9783 18.9556 21.7084 18.4897C21.6991 18.4739 21.6898 18.4577 21.6803 18.4413L19.7327 15.1097L19.7106 15.0722C19.4369 14.6094 19.2988 14.3757 19.1214 14.2854C18.9257 14.1857 18.6954 14.1857 18.4997 14.2854C18.3211 14.3781 18.1769 14.622 17.8918 15.1131L15.9512 18.4448L15.9445 18.4562C15.6605 18.9466 15.5185 19.1917 15.5287 19.3927C15.5425 19.6126 15.6558 19.8151 15.8413 19.9354C16.0096 20.0452 16.2981 20.0452 16.8717 20.0452Z" fill="#E84142"/>
</g>
<defs>
<clipPath id="clip0_3681_16261">
<rect width="28" height="28" fill="white" transform="translate(0 0.5)"/>
</clipPath>
</defs>
</svg>
