<svg width="28" height="29" viewBox="0 0 28 29" fill="none" xmlns="http://www.w3.org/2000/svg">
<g clip-path="url(#clip0_3681_16277)">
<path d="M14 28.5C21.732 28.5 28 22.232 28 14.5C28 6.76801 21.732 0.5 14 0.5C6.26801 0.5 0 6.76801 0 14.5C0 22.232 6.26801 28.5 14 28.5Z" fill="#13B5EC"/>
<path fill-rule="evenodd" clip-rule="evenodd" d="M15.05 11.7875L18.2 9.95V13.625L15.05 11.7875ZM18.2 19.6625L14 22.1125L9.8 19.6625V15.375L14 17.825L18.2 15.375V19.6625ZM9.8 9.95L12.95 11.7875L9.8 13.625V9.95ZM14.525 12.6625L17.675 14.5L14.525 16.3375V12.6625ZM13.475 16.3375L10.325 14.5L13.475 12.6625V16.3375ZM17.675 9.075L14 11.175L10.325 9.075L14 6.8875L17.675 9.075ZM8.75 8.725V20.1875L14 23.1625L19.25 20.1875V8.725L14 5.75L8.75 8.725Z" fill="white"/>
</g>
<defs>
<clipPath id="clip0_3681_16277">
<rect width="28" height="28" fill="white" transform="translate(0 0.5)"/>
</clipPath>
</defs>
</svg>
