<svg width="28" height="28" viewBox="0 0 28 28" fill="none" xmlns="http://www.w3.org/2000/svg">
<g opacity="0.5" clip-path="url(#clip0_1641_25277)">
<path d="M11.0656 15.8593C10.7912 16.0889 10.4608 16.2065 10.0688 16.2065C9.3968 16.2065 9.0552 15.8873 9.0608 15.2377C9.0608 15.0809 9.0776 14.9353 9.1056 14.7953C9.2344 14.1121 9.3576 13.5409 9.4864 13.0705C9.604 12.5889 9.8 12.2361 10.0744 12.0065C10.3544 11.7769 10.6904 11.6593 11.0824 11.6593C11.7488 11.6593 12.0792 11.9785 12.0792 12.6169C12.0792 12.7737 12.0624 12.9249 12.0344 13.0705C11.9504 13.5633 11.8272 14.1345 11.6648 14.7953C11.5472 15.2769 11.3456 15.6297 11.0656 15.8593Z" fill="white"/>
<path d="M19.0064 13.3617C18.788 13.5241 18.536 13.6025 18.2392 13.6025H17.0352L17.4328 11.7209H18.6928C18.9784 11.7209 19.1856 11.7769 19.3032 11.8889C19.4208 11.9953 19.4824 12.1521 19.4824 12.3537C19.4824 12.4433 19.4712 12.5497 19.4488 12.6673C19.376 12.9697 19.2304 13.1993 19.0064 13.3617Z" fill="white"/>
<path fill-rule="evenodd" clip-rule="evenodd" d="M28 14C28 21.732 21.732 28 14 28C6.26801 28 0 21.732 0 14C0 6.26801 6.26801 0 14 0C21.732 0 28 6.26801 28 14ZM7.868 17.1305C8.4 17.5225 9.0832 17.7185 9.9176 17.7185C10.9256 17.7185 11.732 17.4889 12.3312 17.0185C12.936 16.5425 13.356 15.8201 13.6024 14.8625C13.7536 14.2745 13.8768 13.6641 13.9832 13.0425C14.0168 12.8185 14.0336 12.6337 14.0336 12.4881C14.0336 12.0009 13.9104 11.5809 13.664 11.2281C13.4176 10.8697 13.0816 10.6009 12.656 10.4273C12.2304 10.2425 11.7432 10.1529 11.2056 10.1529C9.2232 10.1529 7.9912 11.1161 7.5152 13.0425C7.3472 13.7537 7.2184 14.3585 7.1288 14.8625C7.0952 15.0865 7.0784 15.2713 7.0784 15.4281C7.0784 16.1617 7.3416 16.7329 7.868 17.1305ZM14.3416 17.5449C14.3864 17.5953 14.4424 17.6177 14.5208 17.6177H15.9488C16.0216 17.6177 16.0888 17.5953 16.1504 17.5449C16.2176 17.4945 16.2512 17.4329 16.268 17.3545L16.7496 15.0529H18.1664C19.0848 15.0529 19.8072 14.8625 20.3336 14.4761C20.8712 14.0897 21.224 13.4961 21.3976 12.6897C21.4368 12.4993 21.4592 12.3145 21.4592 12.1409C21.4592 11.5305 21.2184 11.0657 20.7424 10.7409C20.272 10.4217 19.6504 10.2593 18.872 10.2593H16.0776C16.0048 10.2593 15.9376 10.2817 15.876 10.3321C15.8088 10.3825 15.7696 10.4441 15.7584 10.5225L14.308 17.3545C14.2968 17.4273 14.308 17.4889 14.3416 17.5449Z" fill="white"/>
</g>
<defs>
<clipPath id="clip0_1641_25277">
<rect width="28" height="28" fill="white"/>
</clipPath>
</defs>
</svg>
