<svg width="28" height="29" viewBox="0 0 28 29" fill="none" xmlns="http://www.w3.org/2000/svg">
<g clip-path="url(#clip0_3681_16255)">
<path d="M8.5652 12.2653L14.0033 6.82936L19.4436 12.2697L22.6061 9.10501L14.0033 0.5L5.40052 9.1028L8.5652 12.2653Z" fill="#F3BA2F"/>
<path d="M0 14.5011L3.16247 11.3364L6.32715 14.5011L3.16247 17.6636L0 14.5011Z" fill="#F3BA2F"/>
<path d="M8.5652 16.7347L14.0033 22.1729L19.4436 16.7325L22.6083 19.8928L14.0055 28.4978L5.40052 19.8994L8.5652 16.7347Z" fill="#F3BA2F"/>
<path d="M21.6729 14.5011L24.8353 11.3364L28 14.4989L24.8353 17.6658L21.6729 14.5011Z" fill="#F3BA2F"/>
<path d="M17.2122 14.4989L14.0033 11.2878L11.6304 13.6607L11.3561 13.9327L10.7944 14.4945L14.0033 17.7012L17.2122 14.5011V14.4989Z" fill="#F3BA2F"/>
</g>
<defs>
<clipPath id="clip0_3681_16255">
<rect width="28" height="28" fill="white" transform="translate(0 0.5)"/>
</clipPath>
</defs>
</svg>
