<svg width="28" height="28" viewBox="0 0 28 28" fill="none" xmlns="http://www.w3.org/2000/svg">
<g opacity="0.5" clip-path="url(#clip0_1641_25366)">
<path fill-rule="evenodd" clip-rule="evenodd" d="M27.963 13.9814C27.963 21.7032 21.7034 27.9628 13.9816 27.9628C6.25992 27.9628 0.000244141 21.7032 0.000244141 13.9814C0.000244141 6.25968 6.25992 0 13.9816 0C21.7034 0 27.963 6.25968 27.963 13.9814ZM10.0197 19.5453H7.30631C6.73614 19.5453 6.45451 19.5453 6.28278 19.4354C6.0973 19.3152 5.98396 19.116 5.97022 18.8961C5.95991 18.6935 6.10074 18.4462 6.38238 17.9516L13.0821 6.14241C13.3672 5.64094 13.5114 5.3902 13.6935 5.29747C13.8892 5.19787 14.1228 5.19787 14.3186 5.29747C14.5006 5.3902 14.6449 5.64094 14.9299 6.14241L16.3073 8.54668L16.3143 8.55895C16.6222 9.09693 16.7783 9.36974 16.8465 9.65607C16.9221 9.96863 16.9221 10.2984 16.8465 10.6109C16.7778 10.8994 16.6233 11.1742 16.3107 11.7203L12.7915 17.9413L12.7824 17.9572C12.4725 18.4996 12.3154 18.7745 12.0977 18.9819C11.8607 19.2087 11.5756 19.3734 11.2631 19.4663C10.978 19.5453 10.6586 19.5453 10.0197 19.5453ZM16.8719 19.5453H20.7599C21.3335 19.5453 21.6221 19.5453 21.7939 19.4321C21.9793 19.3118 22.096 19.1091 22.1065 18.8894C22.1163 18.6934 21.9786 18.4556 21.7086 17.9898C21.6993 17.9739 21.69 17.9578 21.6805 17.9413L19.733 14.6097L19.7108 14.5722C19.4372 14.1094 19.299 13.8757 19.1216 13.7854C18.9259 13.6858 18.6956 13.6858 18.5 13.7854C18.3213 13.8781 18.1771 14.122 17.892 14.6131L15.9514 17.9448L15.9448 17.9562C15.6607 18.4466 15.5187 18.6917 15.529 18.8927C15.5427 19.1126 15.656 19.3152 15.8415 19.4354C16.0098 19.5453 16.2983 19.5453 16.8719 19.5453Z" fill="white"/>
</g>
<defs>
<clipPath id="clip0_1641_25366">
<rect width="28" height="28" fill="white"/>
</clipPath>
</defs>
</svg>
