<svg width="28" height="29" viewBox="0 0 28 29" fill="none" xmlns="http://www.w3.org/2000/svg">
<path d="M13.8348 0.5C8.0522 0.5 3.36813 5.18794 3.36426 10.9705C3.36426 11.6319 3.42614 12.2933 3.54992 12.9432L4.9037 12.0187C7.28248 10.3864 11.1388 10.3864 13.5137 12.0187L14.9333 12.9934L15.703 13.5233C17.8458 14.9932 21.3192 14.9932 23.4582 13.5233L24.0887 13.094C25.2491 7.42748 21.5977 1.89246 15.9312 0.728208C15.2427 0.585095 14.5426 0.515472 13.8386 0.515472L13.8348 0.5Z" fill="#F2B705"/>
<path d="M19.7179 17.2598C18.221 17.2868 16.7512 16.8691 15.498 16.0607L13.3126 14.5638C10.8874 13.0747 7.82786 13.0747 5.39879 14.5638L3.98699 15.5308C3.7085 15.7242 3.32558 15.6507 3.13218 15.3722C2.93878 15.0937 3.01227 14.7108 3.29076 14.5174L4.70256 13.5504C7.54936 11.7828 11.1543 11.7828 14.0011 13.5504L16.1865 15.0473C18.3486 16.374 21.0755 16.374 23.2377 15.0473L24.0655 14.4787C24.3439 14.2853 24.7269 14.3588 24.9203 14.6373C25.1137 14.9158 25.0402 15.2987 24.7617 15.4921L23.9339 16.0607C22.6807 16.8652 21.2109 17.283 19.7179 17.2598Z" fill="#53CBC8"/>
<path d="M9.3095 21.6576V15.7397C9.30563 15.6159 9.3095 15.4921 9.32497 15.3683C9.36365 15.0318 9.64988 14.7766 9.99026 14.7766C10.319 14.7882 10.5859 15.0396 10.6169 15.3683C10.6439 15.5733 10.6478 15.7822 10.6401 15.9872V27.7844C10.6555 28.1673 10.3577 28.4845 9.97479 28.5C9.97092 28.5 9.96705 28.5 9.96318 28.5C9.58799 28.4807 9.30177 28.1596 9.3211 27.7844C9.3211 27.7728 9.32111 27.7612 9.32497 27.7535V23.8159L9.3095 21.6576Z" fill="#53CBC8"/>
<path d="M8.06795 18.6793V21.6189C8.06795 22.1218 7.79333 22.4467 7.41814 22.4467C7.04682 22.4467 6.74899 22.0947 6.74512 21.6189V15.7358C6.74512 15.2214 7.04682 14.8733 7.43748 14.9081C7.82814 14.9429 8.06022 15.2368 8.06408 15.7551C8.06795 16.7183 8.06795 17.6968 8.06795 18.6793Z" fill="#53CBC8"/>
<path d="M11.8853 18.6754V16.6138C11.8853 16.1342 12.1405 15.8248 12.5196 15.8248C12.9103 15.8441 13.2158 16.1767 13.1965 16.5674C13.1965 16.5751 13.1965 16.5868 13.1965 16.5945C13.2081 17.9985 13.2081 19.4026 13.1965 20.8105C13.1965 21.2902 12.9219 21.5803 12.5235 21.5725C12.1289 21.5687 11.8891 21.2747 11.8853 20.7835V18.6754Z" fill="#53CBC8"/>
<path d="M4.18457 19.1009V17.0354C4.18457 16.5558 4.43986 16.2464 4.81891 16.2464C5.20957 16.2657 5.51514 16.5984 5.4958 16.989C5.4958 16.9967 5.4958 17.0084 5.4958 17.0161C5.50741 18.424 5.50741 19.8281 5.4958 21.236C5.4958 21.7156 5.22118 22.0019 4.82665 21.998C4.43599 21.9941 4.18844 21.7002 4.18457 21.2089V19.1009Z" fill="#53CBC8"/>
<path d="M15.0922 17.3449C15.4519 17.3449 15.742 17.635 15.742 17.9947V19.1164C15.742 19.4761 15.4519 19.7662 15.0922 19.7662C14.7325 19.7662 14.4424 19.4761 14.4424 19.1164V17.9947C14.4463 17.6388 14.7363 17.3449 15.0922 17.3449Z" fill="#53CBC8"/>
<path d="M17.664 18.3312C18.0237 18.3312 18.3138 18.6213 18.3138 18.981V25.2819C18.3138 25.6416 18.0237 25.9317 17.664 25.9317C17.3043 25.9317 17.0142 25.6416 17.0142 25.2819V18.981C17.0142 18.6213 17.3043 18.3312 17.664 18.3312Z" fill="#53CBC8"/>
<path d="M20.2206 18.5749C20.5803 18.5749 20.8704 18.865 20.8704 19.2247V24.5779C20.8704 24.9376 20.5803 25.2277 20.2206 25.2277C19.8609 25.2277 19.5708 24.9376 19.5708 24.5779V19.2247C19.5708 18.865 19.8609 18.5749 20.2206 18.5749Z" fill="#53CBC8"/>
<path d="M22.8085 17.9637C23.1682 17.9637 23.4583 18.2538 23.4583 18.6136V20.9227C23.4583 21.2824 23.1682 21.5725 22.8085 21.5725C22.4488 21.5725 22.1587 21.2824 22.1587 20.9227V18.6136C22.1587 18.2538 22.4527 17.9637 22.8085 17.9637Z" fill="#53CBC8"/>
</svg>
