<svg width="28" height="29" viewBox="0 0 28 29" fill="none" xmlns="http://www.w3.org/2000/svg">
<path d="M14.0005 2.6392C14.5784 2.63737 15.1453 2.79735 15.637 3.10101C16.1287 3.40468 16.5256 3.83992 16.7827 4.35747L25.5327 21.8575C25.7701 22.3318 25.8823 22.8589 25.8587 23.3888C25.835 23.9187 25.6762 24.4338 25.3974 24.885C25.1186 25.3363 24.7291 25.7088 24.2658 25.9671C23.8025 26.2254 23.2809 26.3609 22.7504 26.3608H5.2505C4.72015 26.3607 4.19863 26.2251 3.73546 25.9667C3.2723 25.7084 2.88288 25.3359 2.60419 24.8846C2.32551 24.4334 2.16681 23.9184 2.14318 23.3886C2.11955 22.8588 2.23177 22.3317 2.46918 21.8575L11.2182 4.35747C11.4754 3.83992 11.8723 3.40468 12.364 3.10101C12.8557 2.79735 13.4226 2.63737 14.0005 2.6392ZM14.0005 0.5C13.0256 0.499903 12.0701 0.771219 11.2407 1.28356C10.4114 1.79589 9.74108 2.52901 9.30488 3.4008L0.55492 20.9008C0.154409 21.7013 -0.0348013 22.5908 0.00526271 23.485C0.0453267 24.3792 0.313335 25.2482 0.783828 26.0097C1.25432 26.7711 1.91167 27.3996 2.69344 27.8355C3.47521 28.2713 4.35544 28.5001 5.2505 28.5H22.7504C23.6454 28.4999 24.5255 28.2711 25.3072 27.8351C26.0888 27.3992 26.746 26.7707 27.2164 26.0093C27.6868 25.2479 27.9547 24.3789 27.9947 23.4848C28.0348 22.5907 27.8456 21.7012 27.4451 20.9008L18.696 3.4008C18.2598 2.52901 17.5895 1.79589 16.7602 1.28356C15.9309 0.771219 14.9753 0.499903 14.0005 0.5Z" fill="black"/>
</svg>
