<svg width="28" height="29" viewBox="0 0 28 29" fill="none" xmlns="http://www.w3.org/2000/svg">
<g clip-path="url(#clip0_3681_16384)">
<path d="M27.5811 17.8867C25.7111 25.3868 18.1139 29.9512 10.6121 28.0809C3.11341 26.2111 -1.45151 18.6143 0.419327 11.1148C2.28852 3.6139 9.88573 -0.950842 17.3852 0.918958C24.8865 2.78876 29.4511 10.3864 27.5809 17.8868L27.581 17.8867H27.5811Z" fill="#F7931A"/>
<path d="M20.1717 12.5054C20.4504 10.6423 19.032 9.64081 17.0924 8.97272L17.7216 6.449L16.1853 6.0662L15.5728 8.52347C15.1689 8.42274 14.7542 8.32783 14.3419 8.23374L14.9589 5.76024L13.4236 5.37744L12.794 7.90035C12.4598 7.82425 12.1315 7.74904 11.8131 7.6698L11.8148 7.66186L9.6963 7.13283L9.28763 8.77366C9.28763 8.77366 10.4274 9.03493 10.4034 9.05101C11.0255 9.20628 11.138 9.61809 11.1193 9.94451L10.4026 12.8196C10.4454 12.8305 10.501 12.8462 10.5623 12.8709C10.511 12.8582 10.4565 12.8443 10.3999 12.8307L9.39527 16.8583C9.31924 17.0473 9.12627 17.331 8.69132 17.2233C8.70672 17.2456 7.57474 16.9446 7.57474 16.9446L6.81201 18.7032L8.81122 19.2015C9.18314 19.2948 9.5476 19.3924 9.90652 19.4842L9.2708 22.0368L10.8053 22.4196L11.4348 19.8941C11.8541 20.0079 12.2609 20.1128 12.6591 20.2118L12.0317 22.7254L13.568 23.1082L14.2037 20.5604C16.8234 21.0561 18.7931 20.8563 19.6222 18.4868C20.2903 16.5791 19.589 15.4787 18.2108 14.7611C19.2146 14.5296 19.9707 13.8694 20.1723 12.5056L20.1718 12.5053L20.1717 12.5054ZM16.6617 17.4273C16.187 19.335 12.975 18.3038 11.9336 18.0452L12.7772 14.6634C13.8185 14.9233 17.1579 15.4378 16.6618 17.4273H16.6617ZM17.1368 12.4777C16.7037 14.213 14.0304 13.3314 13.1631 13.1152L13.928 10.0481C14.7952 10.2643 17.588 10.6678 17.137 12.4777H17.1368Z" fill="white"/>
</g>
<defs>
<clipPath id="clip0_3681_16384">
<rect width="28" height="28" fill="white" transform="translate(0 0.5)"/>
</clipPath>
</defs>
</svg>
