<svg width="28" height="29" viewBox="0 0 28 29" fill="none" xmlns="http://www.w3.org/2000/svg">
<g clip-path="url(#clip0_3681_16304)">
<path d="M21.9598 0.538362C20.3605 0.537121 18.8261 1.17049 17.6934 2.29944C16.5606 3.42839 15.9221 4.96066 15.918 6.55992V13.2364C15.2958 13.2784 14.6596 13.3048 14 13.3048C13.3404 13.3048 12.7073 13.3313 12.082 13.3686V6.55992C12.0566 4.97453 11.4089 3.46269 10.2788 2.35054C9.14863 1.23839 7.62659 0.615082 6.041 0.615082C4.45541 0.615082 2.93337 1.23839 1.80323 2.35054C0.673091 3.46269 0.0254412 4.97453 0 6.55992V22.5168C0.0254412 24.1022 0.673091 25.614 1.80323 26.7262C2.93337 27.8383 4.45541 28.4616 6.041 28.4616C7.62659 28.4616 9.14863 27.8383 10.2788 26.7262C11.4089 25.614 12.0566 24.1022 12.082 22.5168V15.8404C12.7042 15.7984 13.3404 15.7719 14 15.7719C14.6596 15.7719 15.2927 15.7455 15.918 15.7081V22.5168C15.9434 24.1022 16.5911 25.614 17.7212 26.7262C18.8514 27.8383 20.3734 28.4616 21.959 28.4616C23.5446 28.4616 25.0666 27.8383 26.1968 26.7262C27.3269 25.614 27.9746 24.1022 28 22.5168V6.55992C27.9959 4.96093 27.3576 3.42889 26.2252 2.29999C25.0928 1.17108 23.5588 0.537533 21.9598 0.538362ZM6.04022 3.00547C6.98405 3.00506 7.8895 3.37906 8.5579 4.04543C9.22631 4.71179 9.60308 5.61609 9.60556 6.55992V13.6299C7.83811 13.886 6.11213 14.374 4.47222 15.0813C3.7617 15.3931 3.09283 15.7923 2.48111 16.2697V6.55992C2.48358 5.61717 2.8595 4.71381 3.52656 4.04762C4.19362 3.38144 5.09747 3.00671 6.04022 3.00547ZM9.60556 22.5168C9.60556 23.4624 9.22992 24.3692 8.56129 25.0379C7.89266 25.7065 6.98581 26.0821 6.04022 26.0821C5.09464 26.0821 4.18778 25.7065 3.51915 25.0379C2.85052 24.3692 2.47489 23.4624 2.47489 22.5168V20.9161C2.47489 19.5021 3.59489 18.1628 5.47244 17.329C6.7954 16.7583 8.18352 16.3523 9.60556 16.1204V22.5168ZM21.9598 26.0713C21.016 26.0717 20.1105 25.6977 19.4421 25.0313C18.7737 24.3649 18.3969 23.4606 18.3944 22.5168V15.4468C20.1619 15.1907 21.8879 14.7027 23.5278 13.9955C24.2383 13.6836 24.9072 13.2844 25.5189 12.807V22.5168C25.5164 23.4596 25.1405 24.3629 24.4734 25.0291C23.8064 25.6953 22.9025 26.07 21.9598 26.0713ZM22.5276 11.7384C21.2046 12.3091 19.8165 12.7151 18.3944 12.947V6.55992C18.3944 5.61433 18.7701 4.70748 19.4387 4.03885C20.1073 3.37022 21.0142 2.99458 21.9598 2.99458C22.9054 2.99458 23.8122 3.37022 24.4809 4.03885C25.1495 4.70748 25.5251 5.61433 25.5251 6.55992V8.16058C25.5251 9.56836 24.4051 10.9077 22.5276 11.7384Z" fill="url(#paint0_linear_3681_16304)"/>
</g>
<defs>
<linearGradient id="paint0_linear_3681_16304" x1="1.77333" y1="26.3813" x2="26.0669" y2="2.02137" gradientUnits="userSpaceOnUse">
<stop stop-color="#00AEE9"/>
<stop offset="1" stop-color="#69FABD"/>
</linearGradient>
<clipPath id="clip0_3681_16304">
<rect width="28" height="28" fill="white" transform="translate(0 0.5)"/>
</clipPath>
</defs>
</svg>
