<svg width="28" height="28" viewBox="0 0 28 28" fill="none" xmlns="http://www.w3.org/2000/svg">
<g opacity="0.5" clip-path="url(#clip0_1641_25288)">
<path d="M8.22991 15.943C9.03458 15.943 9.81963 15.6748 10.4542 15.1842L5.3514 10.0814C4.1215 11.6711 4.41589 13.9608 6.00561 15.1907C6.64673 15.6748 7.42523 15.943 8.22991 15.943Z" fill="white"/>
<path d="M23.4075 12.2991C23.4075 11.4944 23.1393 10.7094 22.6486 10.0748L17.5458 15.1776C19.1355 16.4075 21.4187 16.1131 22.6486 14.5234C23.1393 13.8888 23.4075 13.1038 23.4075 12.2991Z" fill="white"/>
<path d="M25.9785 6.7449L23.7215 9.00191C25.5402 11.1804 25.2523 14.4253 23.0738 16.244C21.1636 17.8402 18.3897 17.8402 16.4794 16.244L14 18.7234L11.5271 16.2505C9.3486 18.0692 6.10374 17.7813 4.28505 15.6028C2.68879 13.6926 2.68879 10.9187 4.28505 9.00845L3.1271 7.85051L2.02804 6.7449C0.7 8.92995 0 11.4421 0 14C0 21.7327 6.26729 28 14 28C21.7327 28 28 21.7327 28 14C28.0065 11.4421 27.3 8.92995 25.9785 6.7449Z" fill="white"/>
<path d="M24.1271 4.33743C18.7953 -1.25603 9.93738 -1.46538 4.34393 3.8664C4.18037 4.02341 4.02336 4.18042 3.8729 4.33743C3.52617 4.70378 3.19907 5.08322 2.89159 5.48229L14 16.5972L25.1084 5.48229C24.8075 5.08322 24.4738 4.70378 24.1271 4.33743ZM14 1.83182C17.271 1.83182 20.3196 3.09443 22.6093 5.39724L14 14.0066L5.39065 5.39724C7.68037 3.09443 10.729 1.83182 14 1.83182Z" fill="white"/>
</g>
<defs>
<clipPath id="clip0_1641_25288">
<rect width="28" height="28" fill="white"/>
</clipPath>
</defs>
</svg>
