<svg width="28" height="28" viewBox="0 0 28 28" fill="none" xmlns="http://www.w3.org/2000/svg">
<g opacity="0.5">
<path d="M14.0279 0L1.90401 7V21L14.0279 28L26.1317 21V7L14.0279 0ZM22.5409 18.9222L14.0078 23.8444L5.49478 18.9222V9.07781L14.0279 4.15562L22.5409 9.07781V18.9222Z" fill="white"/>
<path d="M14.0279 28L26.1317 21V7L14.0279 0V4.15562L22.5409 9.07781V18.9424L14.0078 23.8646V28H14.0279Z" fill="white"/>
<path d="M14.0078 0L1.90401 7V21L14.0078 28V23.8444L5.49478 18.9222V9.05764L14.0078 4.15562V0Z" fill="white"/>
<path d="M19.6763 17.268L14.0279 20.536L8.35934 17.268V10.732L14.0279 7.46398L19.6763 10.732L17.3161 12.1037L14.0078 10.1873L10.7196 12.1037V15.9164L14.0279 17.8329L17.3363 15.9164L19.6763 17.268Z" fill="white"/>
</g>
</svg>
