<svg width="28" height="28" viewBox="0 0 28 28" fill="none" xmlns="http://www.w3.org/2000/svg">
<g opacity="0.5">
<path d="M12.2331 17.6229C13.4865 17.954 16.2262 18.6776 16.6618 16.9273C17.108 15.1379 14.4516 14.5417 13.155 14.2508C13.01 14.2182 12.882 14.1895 12.7772 14.1634L11.9336 17.5452C12.0196 17.5665 12.1203 17.5932 12.2331 17.6229Z" fill="white"/>
<path d="M13.4151 12.6812C14.4601 12.9601 16.7399 13.5685 17.1369 11.9777C17.5423 10.3508 15.3269 9.86027 14.2449 9.6207C14.1231 9.59375 14.0157 9.56997 13.928 9.54811L13.1632 12.6152C13.2354 12.6332 13.3201 12.6559 13.4151 12.6812Z" fill="white"/>
<path fill-rule="evenodd" clip-rule="evenodd" d="M10.6121 27.5809C18.1139 29.4511 25.7111 24.8867 27.5811 17.3867C29.4513 9.88625 24.8865 2.28873 17.3852 0.418928C9.88574 -1.45087 2.28852 3.11387 0.419327 10.6148C-1.45151 18.1142 3.11341 25.7111 10.6121 27.5809ZM17.0924 8.47272C19.032 9.14081 20.4504 10.1423 20.1718 12.0054L20.1723 12.0056C19.9707 13.3694 19.2147 14.0296 18.2108 14.2611C19.589 14.9787 20.2904 16.0791 19.6223 17.9868C18.7932 20.3563 16.8234 20.5562 14.2037 20.0604L13.5681 22.6083L12.0318 22.2255L12.6592 19.7118C12.2609 19.6128 11.8541 19.5079 11.4349 19.3941L10.8053 21.9196L9.27085 21.5368L9.90657 18.9842C9.75893 18.9464 9.61034 18.9077 9.46069 18.8687C9.24654 18.8128 9.0302 18.7564 8.81127 18.7015L6.81207 18.2032L7.5748 16.4446C7.5748 16.4446 8.70678 16.7456 8.69138 16.7233C9.12633 16.831 9.3193 16.5473 9.39533 16.3583L10.4 12.3307C10.4404 12.3404 10.4798 12.3503 10.5177 12.3597C10.5329 12.3635 10.5477 12.3673 10.5623 12.3709C10.501 12.3462 10.4455 12.3305 10.4026 12.3196L11.1194 9.44451C11.1381 9.1181 11.0256 8.70628 10.4034 8.55101C10.4275 8.53493 9.28769 8.27366 9.28769 8.27366L9.69635 6.63283L11.8149 7.16187L11.8131 7.1698C12.1316 7.24905 12.4599 7.32425 12.7941 7.40035L13.4236 4.87744L14.959 5.26024L14.342 7.73374C14.7542 7.82783 15.169 7.92275 15.5728 8.02348L16.1854 5.5662L17.7216 5.949L17.0924 8.47272Z" fill="white"/>
</g>
</svg>
