<svg width="28" height="29" viewBox="0 0 28 29" fill="none" xmlns="http://www.w3.org/2000/svg">
<path d="M18.0621 9.82768H9.9679C9.62431 9.82768 9.34266 10.1093 9.34266 10.4529V18.5471C9.34266 18.8907 9.62431 19.1723 9.9679 19.1723H18.0621C18.4057 19.1723 18.6873 18.8907 18.6873 18.5471V10.4529C18.6873 10.1093 18.4057 9.82768 18.0621 9.82768Z" fill="black"/>
<path d="M8.71941 0.514984H0.625242C0.281659 0.514984 1.52403e-07 0.796643 1.52403e-07 1.14023V9.2344C1.52403e-07 9.57798 0.281659 9.85964 0.625242 9.85964H8.71941C9.063 9.85964 9.34465 9.57798 9.34465 9.2344V1.14023C9.34266 0.796643 9.063 0.514984 8.71941 0.514984Z" fill="black"/>
<path d="M27.3748 0.514984H19.2806C18.937 0.514984 18.6553 0.796643 18.6553 1.14023V9.2344C18.6553 9.57798 18.937 9.85964 19.2806 9.85964H27.3748C27.7183 9.85964 28 9.57798 28 9.2344V1.14023C28 0.796643 27.7183 0.514984 27.3748 0.514984Z" fill="black"/>
<path d="M8.71941 19.1404H0.625242C0.281659 19.1404 0 19.422 0 19.7656V27.8598C0 28.2034 0.281659 28.485 0.625242 28.485H8.71941C9.063 28.485 9.34465 28.2034 9.34465 27.8598V19.7656C9.34266 19.422 9.063 19.1404 8.71941 19.1404Z" fill="black"/>
<path d="M27.3748 19.1404H19.2806C18.937 19.1404 18.6553 19.422 18.6553 19.7656V27.8598C18.6553 28.2034 18.937 28.485 19.2806 28.485H27.3748C27.7183 28.485 28 28.2034 28 27.8598V19.7656C28 19.422 27.7183 19.1404 27.3748 19.1404Z" fill="black"/>
</svg>
