<svg width="28" height="29" viewBox="0 0 28 29" fill="none" xmlns="http://www.w3.org/2000/svg">
<path d="M19.6595 3.59032C22.8368 4.9804 25.0212 8.35628 24.8226 11.7322C19.0638 11.7322 13.3049 11.7322 7.74463 11.7322C7.74463 9.54777 8.53895 7.16479 10.1276 5.57614C12.312 2.796 16.4822 2.00167 19.6595 3.59032Z" fill="#5FC0C1"/>
<path d="M19.2622 25.2357C19.6594 25.2357 19.858 25.4343 19.858 25.6329C19.858 25.8315 19.6594 26.03 19.2622 26.03H10.1275C9.73032 26.03 9.53174 25.8315 9.53174 25.6329C9.53174 25.4343 9.73032 25.2357 10.1275 25.2357H19.2622Z" fill="#E1177C"/>
<path d="M8.14164 26.2286C8.53881 26.2286 8.73739 26.03 8.73739 25.6329C8.73739 25.2357 8.53881 25.0371 8.14164 25.0371C7.74448 25.0371 7.5459 25.2357 7.5459 25.6329C7.5459 26.03 7.74448 26.2286 8.14164 26.2286Z" fill="#E1177C"/>
<path d="M13.7022 23.8456C14.0994 23.8456 14.2979 23.6471 14.2979 23.2499C14.2979 22.8527 14.0994 22.6541 13.7022 22.6541C13.305 22.6541 13.1064 22.8527 13.1064 23.2499C13.1064 23.6471 13.305 23.8456 13.7022 23.8456Z" fill="#E1177C"/>
<path d="M24.4255 22.6541C24.8226 22.6541 25.0212 22.8527 25.0212 23.2499C25.0212 23.6471 24.8226 23.8456 24.4255 23.8456H15.4893C15.0921 23.8456 14.8936 23.6471 14.8936 23.2499C14.8936 22.8527 15.0921 22.6541 15.4893 22.6541H24.4255Z" fill="#E1177C"/>
<path d="M1.78715 21.4627C2.18431 21.4627 2.3829 21.2641 2.3829 20.8669C2.3829 20.4698 2.18431 20.2712 1.78715 20.2712C1.38999 20.2712 1.19141 20.4698 1.19141 20.8669C1.19141 21.2641 1.58857 21.4627 1.78715 21.4627Z" fill="#E1177C"/>
<path d="M10.7235 20.2712C11.1207 20.2712 11.3193 20.4698 11.3193 20.8669C11.3193 21.2641 11.1207 21.4627 10.7235 21.4627H3.37602C2.97886 21.4627 2.78027 21.2641 2.78027 20.8669C2.78027 20.4698 2.97886 20.2712 3.37602 20.2712H10.7235Z" fill="#E1177C"/>
<path d="M27.4041 20.2712C27.8012 20.2712 27.9998 20.4698 27.9998 20.8669C27.9998 21.2641 27.8012 21.4627 27.4041 21.4627H12.709C12.3119 21.4627 12.1133 21.2641 12.1133 20.8669C12.1133 20.4698 12.3119 20.2712 12.709 20.2712H27.4041Z" fill="#E1177C"/>
<path d="M24.6242 17.8882C25.0213 17.8882 25.2199 18.0868 25.2199 18.4839C25.2199 18.8811 25.0213 19.0797 24.6242 19.0797H6.55326C6.35468 19.2783 5.95752 18.8811 5.95752 18.4839C5.95752 18.0868 6.1561 17.8882 6.55326 17.8882H24.6242Z" fill="#E1177C"/>
<path d="M4.56742 19.2783C4.96459 19.2783 5.16317 19.0797 5.16317 18.6825C5.16317 18.2853 4.96459 17.8882 4.56742 17.8882C4.17026 17.8882 3.97168 18.2853 3.97168 18.4839C3.97168 18.6825 4.17026 19.2783 4.56742 19.2783Z" fill="#E1177C"/>
<path d="M20.8512 15.7038C21.2484 15.7038 21.447 15.9024 21.447 16.2995C21.447 16.6967 21.2484 16.8953 20.8512 16.8953H2.78031C2.58173 16.8953 2.18457 16.6967 2.18457 16.2995C2.18457 15.9024 2.38315 15.7038 2.78031 15.7038H20.8512Z" fill="#E1177C"/>
<path d="M0.595745 16.8953C0.992908 16.8953 1.19149 16.6967 1.19149 16.2995C1.19149 15.9024 0.992908 15.7038 0.595745 15.7038C0.198582 15.7038 0 15.9024 0 16.2995C0 16.6967 0.198582 16.8953 0.595745 16.8953Z" fill="#E1177C"/>
<path d="M4.56742 14.5123C4.96459 14.5123 5.16317 14.3137 5.16317 13.9166C5.16317 13.5194 4.96459 13.3208 4.56742 13.3208C4.17026 13.3208 3.97168 13.718 3.97168 13.9166C3.97168 14.3137 4.17026 14.5123 4.56742 14.5123Z" fill="#E1177C"/>
<path d="M26.4116 13.3208C26.8087 13.3208 27.0073 13.5194 27.0073 13.9166C27.0073 14.3137 26.8087 14.5123 26.4116 14.5123H6.752C6.35483 14.5123 6.15625 14.3137 6.15625 13.9166C6.15625 13.5194 6.35483 13.3208 6.752 13.3208H26.4116Z" fill="#E1177C"/>
</svg>
