<svg width="28" height="28" viewBox="0 0 28 28" fill="none" xmlns="http://www.w3.org/2000/svg">
<g opacity="0.5">
<path d="M19.6596 3.09045C22.8369 4.48052 25.0213 7.8564 24.8227 11.2323C19.0638 11.2323 13.305 11.2323 7.74468 11.2323C7.74468 9.04789 8.53901 6.66492 10.1277 5.07626C12.3121 2.29612 16.4823 1.50179 19.6596 3.09045Z" fill="white"/>
<path d="M19.2624 24.7358C19.6596 24.7358 19.8582 24.9344 19.8582 25.133C19.8582 25.3316 19.6596 25.5302 19.2624 25.5302H10.1277C9.7305 25.5302 9.53191 25.3316 9.53191 25.133C9.53191 24.9344 9.7305 24.7358 10.1277 24.7358H19.2624Z" fill="white"/>
<path d="M8.14184 25.7287C8.53901 25.7287 8.73759 25.5302 8.73759 25.133C8.73759 24.7358 8.53901 24.5373 8.14184 24.5373C7.74468 24.5373 7.5461 24.7358 7.5461 25.133C7.5461 25.5302 7.74468 25.7287 8.14184 25.7287Z" fill="white"/>
<path d="M13.7021 23.3458C14.0993 23.3458 14.2979 23.1472 14.2979 22.75C14.2979 22.3529 14.0993 22.1543 13.7021 22.1543C13.305 22.1543 13.1064 22.3529 13.1064 22.75C13.1064 23.1472 13.305 23.3458 13.7021 23.3458Z" fill="white"/>
<path d="M24.4255 22.1543C24.8227 22.1543 25.0213 22.3529 25.0213 22.75C25.0213 23.1472 24.8227 23.3458 24.4255 23.3458H15.4894C15.0922 23.3458 14.8936 23.1472 14.8936 22.75C14.8936 22.3529 15.0922 22.1543 15.4894 22.1543H24.4255Z" fill="white"/>
<path d="M1.78723 20.9628C2.1844 20.9628 2.38298 20.7642 2.38298 20.367C2.38298 19.9699 2.1844 19.7713 1.78723 19.7713C1.39007 19.7713 1.19149 19.9699 1.19149 20.367C1.19149 20.7642 1.58865 20.9628 1.78723 20.9628Z" fill="white"/>
<path d="M10.7234 19.7713C11.1206 19.7713 11.3191 19.9699 11.3191 20.367C11.3191 20.7642 11.1206 20.9628 10.7234 20.9628H3.37589C2.97872 20.9628 2.78014 20.7642 2.78014 20.367C2.78014 19.9699 2.97872 19.7713 3.37589 19.7713H10.7234Z" fill="white"/>
<path d="M27.4043 19.7713C27.8014 19.7713 28 19.9699 28 20.367C28 20.7642 27.8014 20.9628 27.4043 20.9628H12.7092C12.3121 20.9628 12.1135 20.7642 12.1135 20.367C12.1135 19.9699 12.3121 19.7713 12.7092 19.7713H27.4043Z" fill="white"/>
<path d="M24.6241 17.3883C25.0213 17.3883 25.2199 17.5869 25.2199 17.9841C25.2199 18.3812 25.0213 18.5798 24.6241 18.5798H6.55319C6.35461 18.7784 5.95745 18.3812 5.95745 17.9841C5.95745 17.5869 6.15603 17.3883 6.55319 17.3883H24.6241Z" fill="white"/>
<path d="M4.56738 18.7784C4.96454 18.7784 5.16312 18.5798 5.16312 18.1826C5.16312 17.7855 4.96454 17.3883 4.56738 17.3883C4.17021 17.3883 3.97163 17.7855 3.97163 17.9841C3.97163 18.1826 4.17021 18.7784 4.56738 18.7784Z" fill="white"/>
<path d="M20.8511 15.2039C21.2482 15.2039 21.4468 15.4025 21.4468 15.7997C21.4468 16.1968 21.2482 16.3954 20.8511 16.3954H2.78014C2.58156 16.3954 2.1844 16.1968 2.1844 15.7997C2.1844 15.4025 2.38298 15.2039 2.78014 15.2039H20.8511Z" fill="white"/>
<path d="M0.595745 16.3954C0.992908 16.3954 1.19149 16.1968 1.19149 15.7997C1.19149 15.4025 0.992908 15.2039 0.595745 15.2039C0.198582 15.2039 0 15.4025 0 15.7997C0 16.1968 0.198582 16.3954 0.595745 16.3954Z" fill="white"/>
<path d="M4.56738 14.0124C4.96454 14.0124 5.16312 13.8139 5.16312 13.4167C5.16312 13.0195 4.96454 12.8209 4.56738 12.8209C4.17021 12.8209 3.97163 13.2181 3.97163 13.4167C3.97163 13.8139 4.17021 14.0124 4.56738 14.0124Z" fill="white"/>
<path d="M26.4113 12.8209C26.8085 12.8209 27.0071 13.0195 27.0071 13.4167C27.0071 13.8139 26.8085 14.0124 26.4113 14.0124H6.75177C6.35461 14.0124 6.15603 13.8139 6.15603 13.4167C6.15603 13.0195 6.35461 12.8209 6.75177 12.8209H26.4113Z" fill="white"/>
</g>
</svg>
