<svg width="28" height="28" viewBox="0 0 28 28" fill="none" xmlns="http://www.w3.org/2000/svg">
<g opacity="0.5">
<path d="M9.35533 2.62695L13.8092 0.054881C13.936 -0.0182937 14.0934 -0.0182937 14.2202 0.054881L25.9586 6.83204C26.0854 6.90521 26.1634 7.04058 26.1647 7.18693L26.1805 11.8481C26.1805 11.9956 26.1025 12.1323 25.9744 12.2055L21.5267 14.7738C21.2534 14.9325 20.9108 14.7348 20.9095 14.419L20.8949 10.2359C20.8949 10.0895 20.8157 9.95414 20.6888 9.88096L9.35533 3.33918C9.08092 3.18064 9.08092 2.7855 9.35533 2.62695Z" fill="white"/>
<path d="M6.4781 23.74L2.02544 21.1692C1.89739 21.096 1.81934 20.9606 1.81934 20.813V7.2587C1.81934 7.11235 1.89739 6.97698 2.02422 6.90258L6.05369 4.55735C6.18174 4.48295 6.33907 4.48295 6.4659 4.55735L10.9137 7.12577C11.1869 7.28431 11.1881 7.67823 10.9149 7.83799L7.30009 9.94175C7.17325 10.0149 7.0952 10.1503 7.0952 10.2979V23.3851C7.0952 23.7022 6.7525 23.8986 6.4781 23.74Z" fill="white"/>
<path d="M26.1806 15.6701V20.8118C26.1806 20.9594 26.1026 21.0947 25.9745 21.1679L14.2361 27.9451C14.1093 28.0183 13.9532 28.0183 13.8264 27.9451L9.78104 25.6279C9.65298 25.5547 9.57371 25.4182 9.57371 25.2705V20.135C9.57371 19.8192 9.91519 19.6215 10.1896 19.7776L13.8191 21.857C13.9459 21.9302 14.102 21.929 14.2288 21.857L25.5623 15.3128C25.8366 15.1543 26.1794 15.3519 26.1794 15.6689L26.1806 15.6701Z" fill="white"/>
</g>
</svg>
