<svg width="28" height="29" viewBox="0 0 28 29" fill="none" xmlns="http://www.w3.org/2000/svg">
<path d="M20.7889 19.5655L27.4303 15.7306C27.7824 15.5269 28 15.149 28 14.7436V7.07366C28 6.6682 27.7824 6.29044 27.4303 6.08672L20.7889 2.25174C20.4368 2.04802 19.9997 2.05 19.6496 2.25174L13.0081 6.08672C12.6561 6.29044 12.4385 6.6682 12.4385 7.07366V20.7799L7.78074 23.4678L3.12298 20.7799V15.4023L7.78074 12.7144L10.8523 14.4885V10.8809L8.35031 9.43517C8.17823 9.33628 7.98055 9.28288 7.78074 9.28288C7.58093 9.28288 7.38324 9.33628 7.21116 9.43517L0.569617 13.2701C0.217565 13.4739 0 13.8517 0 14.2571V21.9271C0 22.3325 0.217565 22.7102 0.569617 22.914L7.21116 26.749C7.56315 26.9507 7.99832 26.9507 8.35031 26.749L14.9919 22.914C15.344 22.7102 15.5614 22.3325 15.5614 21.9271V8.21882L15.6445 8.17134L20.2173 5.53096L24.8751 8.21882V13.5965L20.2173 16.2844L17.1496 14.5142V18.1218L19.6476 19.5636C19.9997 19.7653 20.4368 19.7653 20.7869 19.5636L20.7889 19.5655Z" fill="url(#paint0_linear_3681_16249)"/>
<defs>
<linearGradient id="paint0_linear_3681_16249" x1="-0.0909816" y1="22.6786" x2="26.7975" y2="7.07168" gradientUnits="userSpaceOnUse">
<stop stop-color="#A726C1"/>
<stop offset="0.88" stop-color="#803BDF"/>
<stop offset="1" stop-color="#7B3FE4"/>
</linearGradient>
</defs>
</svg>
