<svg width="28" height="29" viewBox="0 0 28 29" fill="none" xmlns="http://www.w3.org/2000/svg">
<path d="M10.8805 6.44938C6.02821 8.31054 5.56292 13.0299 4.23352 15.2234C2.77118 17.4834 -0.419381 18.6799 0.0459094 19.8763C0.44473 21.0063 3.70176 19.7434 6.22762 20.541C8.81996 21.2057 12.2099 24.4628 17.1287 22.5351C18.2889 22.0948 19.3406 21.4097 20.2123 20.5265C21.084 19.6433 21.7553 18.5828 22.1804 17.4169C22.2026 17.369 22.2151 17.3171 22.2171 17.2643C22.219 17.2115 22.2105 17.1588 22.1919 17.1094C22.1734 17.0599 22.1452 17.0146 22.109 16.9761C22.0728 16.9376 22.0293 16.9067 21.981 16.8852C21.9331 16.863 21.8812 16.8505 21.8284 16.8486C21.7756 16.8466 21.7229 16.8551 21.6734 16.8737C21.624 16.8922 21.5787 16.9204 21.5402 16.9566C21.5017 16.9928 21.4708 17.0363 21.4493 17.0846C20.9462 18.088 20.2041 18.9522 19.2884 19.6013C18.3727 20.2504 17.3115 20.6644 16.1981 20.8069C14.7579 20.9928 13.2958 20.7203 12.0191 20.0283C10.7425 19.3363 9.71619 18.2598 9.08584 16.9517L8.88643 16.4864L8.68702 15.9546C12.8472 14.0445 17.1608 12.488 21.5822 11.3017H21.7816C21.8436 11.2785 21.912 11.2793 21.9735 11.3039C22.035 11.3284 22.0851 11.3751 22.114 11.4346V11.634C22.341 12.125 22.5191 12.637 22.6457 13.1629C22.6827 13.2144 22.7336 13.2543 22.7925 13.2779C22.8514 13.3015 22.9158 13.3077 22.9781 13.2958L24.9057 12.2323C27.0328 10.9029 28.2292 9.77289 27.9633 9.17466C27.6975 8.50995 26.1022 8.50995 23.6428 8.97524L21.1169 9.50701L20.5852 9.63995C18.0306 10.2953 15.5215 11.1168 13.074 12.0993C11.2794 12.764 9.88348 13.4287 8.42114 14.0934C8.40561 12.9671 8.67095 11.8547 9.19318 10.8566C9.71542 9.85859 10.4781 9.00638 11.4123 8.37701C12.3374 7.7479 13.4013 7.3527 14.5128 7.22534C15.6242 7.09799 16.75 7.24228 17.7934 7.64584C17.8748 7.67775 17.9645 7.68203 18.0485 7.65801C18.1326 7.63399 18.2064 7.583 18.2587 7.5129C18.3083 7.46651 18.3451 7.40824 18.3659 7.34361C18.3866 7.27898 18.3905 7.21012 18.3772 7.14356C18.3639 7.077 18.3338 7.01494 18.2898 6.96326C18.2458 6.91157 18.1893 6.87197 18.1258 6.8482C17.0143 6.2711 15.7907 5.94247 14.5397 5.88508C13.2887 5.8277 12.0401 6.04292 10.8805 6.51585V6.44938Z" fill="black"/>
</svg>
