<svg width="28" height="28" viewBox="0 0 28 28" fill="none" xmlns="http://www.w3.org/2000/svg">
<g opacity="0.5" clip-path="url(#clip0_1641_25283)">
<path d="M8.5652 11.7653L14.0033 6.32936L19.4436 11.7697L22.6061 8.60501L14.0033 0L5.40052 8.6028L8.5652 11.7653Z" fill="white"/>
<path d="M0 14.0011L3.16247 10.8364L6.32715 14.0011L3.16247 17.1636L0 14.0011Z" fill="white"/>
<path d="M8.5652 16.2347L14.0033 21.6729L19.4436 16.2325L22.6083 19.3928L14.0055 27.9978L5.40052 19.3994L8.5652 16.2347Z" fill="white"/>
<path d="M21.6729 14.0011L24.8353 10.8364L28 13.9989L24.8353 17.1658L21.6729 14.0011Z" fill="white"/>
<path d="M17.2122 13.9989L14.0033 10.7878L11.6304 13.1607L11.3561 13.4327L10.7944 13.9945L14.0033 17.2012L17.2122 14.0011V13.9989Z" fill="white"/>
</g>
<defs>
<clipPath id="clip0_1641_25283">
<rect width="28" height="28" fill="white"/>
</clipPath>
</defs>
</svg>
