<svg width="28" height="28" viewBox="0 0 28 28" fill="none" xmlns="http://www.w3.org/2000/svg">
<g opacity="0.5">
<path d="M10.8805 5.94935C6.02821 7.81051 5.56292 12.5299 4.23352 14.7234C2.77118 16.9834 -0.419381 18.1798 0.0459094 19.3763C0.44473 20.5063 3.70176 19.2434 6.22762 20.041C8.81996 20.7057 12.2099 23.9627 17.1287 22.0351C18.2889 21.5947 19.3406 20.9097 20.2123 20.0265C21.084 19.1433 21.7553 18.0827 22.1804 16.9169C22.2026 16.869 22.2151 16.8171 22.2171 16.7643C22.219 16.7115 22.2105 16.6588 22.1919 16.6093C22.1734 16.5599 22.1452 16.5146 22.109 16.4761C22.0728 16.4376 22.0293 16.4067 21.981 16.3852C21.9331 16.363 21.8812 16.3505 21.8284 16.3485C21.7756 16.3466 21.7229 16.3551 21.6734 16.3736C21.624 16.3922 21.5787 16.4204 21.5402 16.4566C21.5017 16.4928 21.4708 16.5363 21.4493 16.5846C20.9462 17.5879 20.2041 18.4522 19.2884 19.1013C18.3727 19.7504 17.3115 20.1644 16.1981 20.3069C14.7579 20.4927 13.2958 20.2203 12.0191 19.5283C10.7425 18.8363 9.71619 17.7598 9.08584 16.4516L8.88643 15.9863L8.68702 15.4546C12.8472 13.5445 17.1608 11.988 21.5822 10.8017H21.7816C21.8436 10.7785 21.912 10.7792 21.9735 10.8038C22.035 10.8284 22.0851 10.875 22.114 10.9346V11.134C22.341 11.6249 22.5191 12.137 22.6457 12.6628C22.6827 12.7144 22.7336 12.7543 22.7925 12.7779C22.8514 12.8014 22.9158 12.8076 22.9781 12.7958L24.9057 11.7322C27.0328 10.4028 28.2292 9.27286 27.9633 8.67462C27.6975 8.00992 26.1022 8.00992 23.6428 8.47521L21.1169 9.00698L20.5852 9.13991C18.0306 9.79527 15.5215 10.6168 13.074 11.5993C11.2794 12.264 9.88348 12.9287 8.42114 13.5934C8.40561 12.4671 8.67095 11.3547 9.19318 10.3566C9.71542 9.35856 10.4781 8.50635 11.4123 7.87698C12.3374 7.24787 13.4013 6.85267 14.5128 6.72531C15.6242 6.59796 16.75 6.74225 17.7934 7.14581C17.8748 7.17772 17.9645 7.182 18.0485 7.15798C18.1326 7.13396 18.2064 7.08297 18.2587 7.01287C18.3083 6.96648 18.3451 6.90821 18.3659 6.84358C18.3866 6.77895 18.3905 6.71009 18.3772 6.64353C18.3639 6.57697 18.3338 6.51491 18.2898 6.46323C18.2458 6.41154 18.1893 6.37194 18.1258 6.34817C17.0143 5.77107 15.7907 5.44244 14.5397 5.38505C13.2887 5.32767 12.0401 5.54289 10.8805 6.01582V5.94935Z" fill="white"/>
</g>
</svg>
