<svg width="28" height="29" viewBox="0 0 28 29" fill="none" xmlns="http://www.w3.org/2000/svg">
<g opacity="0.5">
<path d="M20.7889 19.1133L27.4303 15.2783C27.7824 15.0746 28 14.6968 28 14.2914V6.62142C28 6.21597 27.7824 5.83821 27.4303 5.63449L20.7889 1.7995C20.4368 1.59579 19.9997 1.59777 19.6496 1.7995L13.0081 5.63449C12.6561 5.83821 12.4385 6.21597 12.4385 6.62142V20.3277L7.78074 23.0155L3.12298 20.3277V14.9501L7.78074 12.2622L10.8523 14.0362V10.4287L8.35031 8.98294C8.17823 8.88405 7.98055 8.83065 7.78074 8.83065C7.58093 8.83065 7.38324 8.88405 7.21116 8.98294L0.569617 12.8179C0.217565 13.0216 0 13.3994 0 13.8049V21.4749C0 21.8803 0.217565 22.258 0.569617 22.4617L7.21116 26.2968C7.56315 26.4985 7.99832 26.4985 8.35031 26.2968L14.9919 22.4617C15.344 22.258 15.5614 21.8803 15.5614 21.4749V7.76658L15.6445 7.71911L20.2173 5.07873L24.8751 7.76658V13.1443L20.2173 15.8322L17.1496 14.0619V17.6696L19.6476 19.1114C19.9997 19.3131 20.4368 19.3131 20.7869 19.1114L20.7889 19.1133Z" fill="white"/>
</g>
</svg>
