<svg width="28" height="28" viewBox="0 0 28 28" fill="none" xmlns="http://www.w3.org/2000/svg">
<g opacity="0.5">
<path d="M11.7564 18.3178C12.3688 18.3178 12.8652 17.8214 12.8652 17.2091C12.8652 16.5967 12.3688 16.1003 11.7564 16.1003C11.1441 16.1003 10.6477 16.5967 10.6477 17.2091C10.6477 17.8214 11.1441 18.3178 11.7564 18.3178Z" fill="white"/>
<path d="M14.5986 20.7852C15.2109 20.7852 15.7074 20.2888 15.7074 19.6765C15.7074 19.0641 15.2109 18.5677 14.5986 18.5677C13.9862 18.5677 13.4898 19.0641 13.4898 19.6765C13.4898 20.2888 13.9862 20.7852 14.5986 20.7852Z" fill="white"/>
<path d="M15.3638 17.0373C15.9762 17.0373 16.4726 16.5409 16.4726 15.9285C16.4726 15.3162 15.9762 14.8197 15.3638 14.8197C14.7515 14.8197 14.2551 15.3162 14.2551 15.9285C14.2551 16.5409 14.7515 17.0373 15.3638 17.0373Z" fill="white"/>
<path d="M18.0499 19.5828C18.6622 19.5828 19.1586 19.0863 19.1586 18.474C19.1586 17.8616 18.6622 17.3652 18.0499 17.3652C17.4375 17.3652 16.9411 17.8616 16.9411 18.474C16.9411 19.0863 17.4375 19.5828 18.0499 19.5828Z" fill="white"/>
<path d="M11.0225 21.9721C11.6348 21.9721 12.1312 21.4757 12.1312 20.8633C12.1312 20.2509 11.6348 19.7545 11.0225 19.7545C10.4101 19.7545 9.9137 20.2509 9.9137 20.8633C9.9137 21.4757 10.4101 21.9721 11.0225 21.9721Z" fill="white"/>
<path d="M17.3315 23.2058C17.9438 23.2058 18.4403 22.7093 18.4403 22.097C18.4403 21.4846 17.9438 20.9882 17.3315 20.9882C16.7191 20.9882 16.2227 21.4846 16.2227 22.097C16.2227 22.7093 16.7191 23.2058 17.3315 23.2058Z" fill="white"/>
<path d="M13.8022 24.5644C14.4145 24.5644 14.9109 24.068 14.9109 23.4556C14.9109 22.8433 14.4145 22.3469 13.8022 22.3469C13.1898 22.3469 12.6934 22.8433 12.6934 23.4556C12.6934 24.068 13.1898 24.5644 13.8022 24.5644Z" fill="white"/>
<path d="M14.2863 27.9844C11.9907 27.9844 9.9137 27.0474 8.39891 25.5482C6.89973 24.049 5.96275 21.9564 5.96275 19.6608C5.96275 17.8806 6.52494 16.2408 7.47754 14.8822L8.02412 18.146C7.9148 18.6301 7.85234 19.1455 7.85234 19.6608C7.85234 21.4411 8.57069 23.0496 9.74192 24.2052C10.9132 25.3764 12.5216 26.0948 14.2863 26.0948C16.0666 26.0948 17.6751 25.3764 18.8307 24.2052C20.0019 23.034 20.7203 21.4255 20.7203 19.6608C20.7203 17.8806 20.0019 16.2721 18.8307 15.1165C17.6594 13.9452 16.051 13.2269 14.2863 13.2269C12.5841 13.2269 11.0381 13.8828 9.89809 14.9603L9.53891 12.8365C10.8819 11.8995 12.5216 11.3529 14.2863 11.3529C16.5819 11.3529 18.6589 12.2899 20.1737 13.7891C21.6729 15.2882 22.6098 17.3808 22.6098 19.6765C22.6098 21.9721 21.6729 24.049 20.1737 25.5638C18.6745 27.063 16.5819 28 14.2863 28V27.9844Z" fill="white"/>
<path d="M10.0074 18.9269C10.1479 18.7395 10.2104 18.5052 10.1635 18.2554L7.21204 0.749353C7.16519 0.49949 7.04026 0.296477 6.85287 0.171545C6.66547 0.0309975 6.43122 -0.0314682 6.18136 0.0153811C5.9315 0.0622303 5.72848 0.187162 5.60355 0.374559C5.463 0.561956 5.40054 0.796202 5.44739 1.04606L8.39889 18.5521C8.44574 18.8019 8.57067 19.0049 8.75807 19.1299C8.94547 19.2704 9.17971 19.3329 9.42957 19.286C9.67944 19.2392 9.88245 19.1143 10.0074 18.9269Z" fill="white"/>
</g>
</svg>
