<svg width="28" height="29" viewBox="0 0 28 29" fill="none" xmlns="http://www.w3.org/2000/svg">
<g clip-path="url(#clip0_3681_16218)">
<path d="M2.53125 9.012V19.988C2.53125 20.6936 2.90085 21.332 3.51685 21.6904L13.0257 27.1784C13.6304 27.5256 14.3808 27.5256 14.9856 27.1784L24.4944 21.6904C25.0992 21.3432 25.48 20.6936 25.48 19.988V9.012C25.48 8.3064 25.1104 7.668 24.4944 7.3096L14.9856 1.8216C14.3808 1.4744 13.6304 1.4744 13.0257 1.8216L3.51685 7.3096C2.91205 7.6568 2.54245 8.3064 2.54245 9.012H2.53125Z" fill="#213147"/>
<path d="M16.0718 16.628L14.7166 20.3464C14.683 20.4472 14.683 20.5592 14.7166 20.6712L17.0462 27.0664L19.7454 25.5096L16.5086 16.628C16.4302 16.4264 16.1502 16.4264 16.0718 16.628Z" fill="#12AAFF"/>
<path d="M18.7933 10.3784C18.7149 10.1768 18.4349 10.1768 18.3565 10.3784L17.0013 14.0968C16.9677 14.1976 16.9677 14.3096 17.0013 14.4216L20.8205 24.8936L23.5197 23.3368L18.7933 10.3896V10.3784Z" fill="#12AAFF"/>
<path d="M13.9999 2.236C14.0671 2.236 14.1343 2.2584 14.1903 2.292L24.4719 8.228C24.5951 8.2952 24.6623 8.4296 24.6623 8.564V20.436C24.6623 20.5704 24.5839 20.7048 24.4719 20.772L14.1903 26.708C14.1343 26.7416 14.0671 26.764 13.9999 26.764C13.9327 26.764 13.8655 26.7416 13.8095 26.708L3.52793 20.772C3.40473 20.7048 3.33753 20.5704 3.33753 20.436V8.5528C3.33753 8.4184 3.41593 8.284 3.52793 8.2168L13.8095 2.2808C13.8655 2.2472 13.9327 2.2248 13.9999 2.2248V2.236ZM13.9999 0.5C13.6303 0.5 13.2719 0.5896 12.9359 0.78L2.65433 6.716C1.99353 7.0968 1.59033 7.7912 1.59033 8.5528V20.4248C1.59033 21.1864 1.99353 21.8808 2.65433 22.2616L12.9359 28.1976C13.2607 28.388 13.6303 28.4776 13.9999 28.4776C14.3695 28.4776 14.7279 28.388 15.0639 28.1976L25.3455 22.2616C26.0063 21.8808 26.4095 21.1864 26.4095 20.4248V8.5528C26.4095 7.7912 26.0063 7.0968 25.3455 6.716L15.0527 0.78C14.7279 0.5896 14.3583 0.5 13.9887 0.5H13.9999Z" fill="#9DCCED"/>
<path d="M7.19043 24.9048L8.14243 22.3064L10.0464 23.8856L8.26563 25.5208L7.19043 24.9048Z" fill="#213147"/>
<path d="M13.1264 7.7128H10.5168C10.3264 7.7128 10.1472 7.836 10.08 8.0152L4.49121 23.3368L7.19041 24.8936L13.3504 8.0152C13.4064 7.8584 13.2944 7.7016 13.1376 7.7016L13.1264 7.7128Z" fill="white"/>
<path d="M17.696 7.7128H15.0864C14.896 7.7128 14.7168 7.836 14.6496 8.0152L8.26562 25.5096L10.9648 27.0664L17.9088 8.0152C17.9648 7.8584 17.8528 7.7016 17.696 7.7016V7.7128Z" fill="white"/>
</g>
<defs>
<clipPath id="clip0_3681_16218">
<rect width="28" height="28" fill="white" transform="translate(0 0.5)"/>
</clipPath>
</defs>
</svg>
