<svg width="28" height="29" viewBox="0 0 28 29" fill="none" xmlns="http://www.w3.org/2000/svg">
<g clip-path="url(#clip0_3681_16268)">
<path d="M8.22985 16.443C9.03453 16.443 9.81957 16.1748 10.4542 15.6841L5.35135 10.5813C4.12144 12.171 4.41584 14.4607 6.00556 15.6907C6.64668 16.1748 7.42518 16.443 8.22985 16.443Z" fill="#00193C"/>
<path d="M23.4076 12.7991C23.4076 11.9944 23.1394 11.2093 22.6487 10.5748L17.5459 15.6776C19.1356 16.9075 21.4188 16.6131 22.6487 15.0234C23.1394 14.3888 23.4076 13.6037 23.4076 12.7991Z" fill="#00193C"/>
<path d="M25.9785 7.24486L23.7215 9.50187C25.5402 11.6804 25.2523 14.9252 23.0738 16.7439C21.1636 18.3402 18.3897 18.3402 16.4794 16.7439L14 19.2234L11.5271 16.7505C9.3486 18.5692 6.10374 18.2813 4.28505 16.1028C2.68879 14.1925 2.68879 11.4187 4.28505 9.50841L3.1271 8.35047L2.02804 7.24486C0.7 9.4299 0 11.9421 0 14.5C0 22.2327 6.26729 28.5 14 28.5C21.7327 28.5 28 22.2327 28 14.5C28.0065 11.9421 27.3 9.4299 25.9785 7.24486Z" fill="#00193C"/>
<path d="M24.1271 4.83739C18.7953 -0.756071 9.9374 -0.965417 4.34394 4.36636C4.18039 4.52337 4.02338 4.68038 3.87291 4.83739C3.52618 5.20374 3.19908 5.58318 2.8916 5.98225L14 17.0972L25.1084 5.98225C24.8075 5.58318 24.4738 5.20374 24.1271 4.83739ZM14 2.33178C17.271 2.33178 20.3196 3.5944 22.6094 5.8972L14 14.5065L5.39067 5.8972C7.68039 3.5944 10.729 2.33178 14 2.33178Z" fill="#00193C"/>
</g>
<defs>
<clipPath id="clip0_3681_16268">
<rect width="28" height="28" fill="white" transform="translate(0 0.5)"/>
</clipPath>
</defs>
</svg>
