<svg width="28" height="28" viewBox="0 0 28 28" fill="none" xmlns="http://www.w3.org/2000/svg">
<path opacity="0.5" d="M14.0005 2.1392C14.5784 2.13737 15.1453 2.29735 15.637 2.60101C16.1287 2.90468 16.5256 3.33992 16.7827 3.85747L25.5327 21.3575C25.7701 21.8318 25.8823 22.3589 25.8587 22.8888C25.835 23.4187 25.6762 23.9338 25.3974 24.385C25.1186 24.8363 24.7291 25.2088 24.2658 25.4671C23.8025 25.7254 23.2809 25.8609 22.7504 25.8608H5.2505C4.72015 25.8607 4.19863 25.7251 3.73546 25.4667C3.2723 25.2084 2.88288 24.8359 2.60419 24.3846C2.32551 23.9334 2.16681 23.4184 2.14318 22.8886C2.11955 22.3588 2.23177 21.8317 2.46918 21.3575L11.2182 3.85747C11.4754 3.33992 11.8723 2.90468 12.364 2.60101C12.8557 2.29735 13.4226 2.13737 14.0005 2.1392ZM14.0005 2.59385e-08C13.0256 -9.68588e-05 12.0701 0.271219 11.2407 0.783556C10.4114 1.29589 9.74108 2.02901 9.30488 2.9008L0.55492 20.4008C0.154409 21.2013 -0.0348013 22.0908 0.00526271 22.985C0.0453267 23.8792 0.313335 24.7482 0.783828 25.5097C1.25432 26.2711 1.91167 26.8996 2.69344 27.3355C3.47521 27.7713 4.35544 28.0001 5.2505 28H22.7504C23.6454 27.9999 24.5255 27.7711 25.3072 27.3351C26.0888 26.8992 26.746 26.2707 27.2164 25.5093C27.6868 24.7479 27.9547 23.8789 27.9947 22.9848C28.0348 22.0907 27.8456 21.2012 27.4451 20.4008L18.696 2.9008C18.2598 2.02901 17.5895 1.29589 16.7602 0.783556C15.9309 0.271219 14.9753 -9.68588e-05 14.0005 2.59385e-08Z" fill="white"/>
</svg>
