<svg width="28" height="29" viewBox="0 0 28 29" fill="none" xmlns="http://www.w3.org/2000/svg">
<g clip-path="url(#clip0_3681_16241)">
<path d="M14 28.5C21.732 28.5 28 22.232 28 14.5C28 6.76801 21.732 0.5 14 0.5C6.26801 0.5 0 6.76801 0 14.5C0 22.232 6.26801 28.5 14 28.5Z" fill="#FF0420"/>
<path d="M9.91781 18.2184C9.08341 18.2184 8.40021 18.0224 7.86821 17.6304C7.34181 17.2328 7.07861 16.6616 7.07861 15.928C7.07861 15.7712 7.09541 15.5864 7.12901 15.3624C7.21861 14.8584 7.34741 14.2536 7.51541 13.5424C7.99141 11.616 9.22341 10.6528 11.2058 10.6528C11.7434 10.6528 12.2306 10.7424 12.6562 10.9272C13.0818 11.1008 13.4178 11.3696 13.6642 11.728C13.9106 12.0808 14.0338 12.5008 14.0338 12.988C14.0338 13.1336 14.017 13.3184 13.9834 13.5424C13.877 14.164 13.7538 14.7744 13.6026 15.3624C13.3562 16.32 12.9362 17.0424 12.3314 17.5184C11.7322 17.9888 10.9258 18.2184 9.91781 18.2184ZM10.069 16.7064C10.461 16.7064 10.7914 16.5888 11.0658 16.3592C11.3458 16.1296 11.5474 15.7768 11.665 15.2952C11.8274 14.6344 11.9506 14.0632 12.0346 13.5704C12.0626 13.4248 12.0794 13.2736 12.0794 13.1168C12.0794 12.4784 11.749 12.1592 11.0826 12.1592C10.6906 12.1592 10.3546 12.2768 10.0746 12.5064C9.80021 12.736 9.60421 13.0888 9.48661 13.5704C9.35781 14.0408 9.23461 14.612 9.10581 15.2952C9.07781 15.4352 9.06101 15.5808 9.06101 15.7376C9.05541 16.3872 9.39701 16.7064 10.069 16.7064Z" fill="white"/>
<path d="M14.5207 18.1176C14.4423 18.1176 14.3863 18.0952 14.3415 18.0448C14.3079 17.9888 14.2967 17.9272 14.3079 17.8544L15.7583 11.0224C15.7695 10.944 15.8087 10.8824 15.8759 10.832C15.9375 10.7816 16.0047 10.7592 16.0775 10.7592H18.8719C19.6503 10.7592 20.2719 10.9216 20.7423 11.2408C21.2183 11.5656 21.4591 12.0304 21.4591 12.6408C21.4591 12.8144 21.4367 12.9992 21.3975 13.1896C21.2239 13.996 20.8711 14.5896 20.3335 14.976C19.8071 15.3624 19.0847 15.5528 18.1663 15.5528H16.7495L16.2679 17.8544C16.2511 17.9328 16.2175 17.9944 16.1503 18.0448C16.0887 18.0952 16.0215 18.1176 15.9487 18.1176H14.5207ZM18.2391 14.1024C18.5359 14.1024 18.7879 14.024 19.0063 13.8616C19.2303 13.6992 19.3759 13.4696 19.4487 13.1672C19.4711 13.0496 19.4823 12.9432 19.4823 12.8536C19.4823 12.652 19.4207 12.4952 19.3031 12.3888C19.1855 12.2768 18.9783 12.2208 18.6927 12.2208H17.4327L17.0351 14.1024H18.2391Z" fill="white"/>
</g>
<defs>
<clipPath id="clip0_3681_16241">
<rect width="28" height="28" fill="white" transform="translate(0 0.5)"/>
</clipPath>
</defs>
</svg>
