<svg width="28" height="29" viewBox="0 0 28 29" fill="none" xmlns="http://www.w3.org/2000/svg">
<path d="M11.7563 18.8178C12.3687 18.8178 12.8651 18.3214 12.8651 17.709C12.8651 17.0967 12.3687 16.6003 11.7563 16.6003C11.1439 16.6003 10.6475 17.0967 10.6475 17.709C10.6475 18.3214 11.1439 18.8178 11.7563 18.8178Z" fill="#1CD7D2"/>
<path d="M14.5985 21.2852C15.2108 21.2852 15.7072 20.7888 15.7072 20.1764C15.7072 19.5641 15.2108 19.0677 14.5985 19.0677C13.9861 19.0677 13.4897 19.5641 13.4897 20.1764C13.4897 20.7888 13.9861 21.2852 14.5985 21.2852Z" fill="#1CD7D2"/>
<path d="M15.3637 17.5373C15.9761 17.5373 16.4725 17.0409 16.4725 16.4285C16.4725 15.8161 15.9761 15.3197 15.3637 15.3197C14.7514 15.3197 14.2549 15.8161 14.2549 16.4285C14.2549 17.0409 14.7514 17.5373 15.3637 17.5373Z" fill="#1CD7D2"/>
<path d="M18.0497 20.0827C18.6621 20.0827 19.1585 19.5863 19.1585 18.974C19.1585 18.3616 18.6621 17.8652 18.0497 17.8652C17.4374 17.8652 16.941 18.3616 16.941 18.974C16.941 19.5863 17.4374 20.0827 18.0497 20.0827Z" fill="#1CD7D2"/>
<path d="M11.0223 22.4721C11.6347 22.4721 12.1311 21.9756 12.1311 21.3633C12.1311 20.7509 11.6347 20.2545 11.0223 20.2545C10.41 20.2545 9.91357 20.7509 9.91357 21.3633C9.91357 21.9756 10.41 22.4721 11.0223 22.4721Z" fill="#1CD7D2"/>
<path d="M17.3314 23.7057C17.9437 23.7057 18.4401 23.2093 18.4401 22.597C18.4401 21.9846 17.9437 21.4882 17.3314 21.4882C16.719 21.4882 16.2226 21.9846 16.2226 22.597C16.2226 23.2093 16.719 23.7057 17.3314 23.7057Z" fill="#1CD7D2"/>
<path d="M13.8021 25.0644C14.4144 25.0644 14.9108 24.568 14.9108 23.9556C14.9108 23.3433 14.4144 22.8468 13.8021 22.8468C13.1897 22.8468 12.6933 23.3433 12.6933 23.9556C12.6933 24.568 13.1897 25.0644 13.8021 25.0644Z" fill="#1CD7D2"/>
<path d="M14.2864 28.4844C11.9908 28.4844 9.91382 27.5474 8.39903 26.0482C6.89986 24.549 5.96287 22.4564 5.96287 20.1608C5.96287 18.3806 6.52506 16.7408 7.47766 15.3822L8.02424 18.646C7.91492 19.1301 7.85246 19.6455 7.85246 20.1608C7.85246 21.9411 8.57081 23.5496 9.74204 24.7052C10.9133 25.8764 12.5218 26.5948 14.2864 26.5948C16.0667 26.5948 17.6752 25.8764 18.8308 24.7052C20.002 23.534 20.7204 21.9255 20.7204 20.1608C20.7204 18.3806 20.002 16.7721 18.8308 15.6165C17.6596 14.4452 16.0511 13.7269 14.2864 13.7269C12.5842 13.7269 11.0382 14.3828 9.89821 15.4603L9.53903 13.3365C10.882 12.3995 12.5218 11.8529 14.2864 11.8529C16.582 11.8529 18.659 12.7899 20.1738 14.2891C21.673 15.7882 22.61 17.8808 22.61 20.1765C22.61 22.4721 21.673 24.549 20.1738 26.0638C18.6746 27.563 16.582 28.5 14.2864 28.5V28.4844Z" fill="#CCFF00"/>
<path d="M10.0075 19.4269C10.1481 19.2395 10.2105 19.0052 10.1637 18.7554L7.21217 1.24935C7.16532 0.99949 7.04038 0.796477 6.85299 0.671545C6.66559 0.530997 6.43134 0.468532 6.18148 0.515381C5.93162 0.56223 5.72861 0.687162 5.60367 0.874559C5.46313 1.06196 5.40066 1.2962 5.44751 1.54606L8.39901 19.0521C8.44586 19.3019 8.57079 19.5049 8.75819 19.6299C8.94559 19.7704 9.17983 19.8329 9.4297 19.786C9.67956 19.7392 9.88257 19.6143 10.0075 19.4269Z" fill="#CCFF00"/>
</svg>
