<svg width="28" height="28" viewBox="0 0 28 28" fill="none" xmlns="http://www.w3.org/2000/svg">
<g opacity="0.5" clip-path="url(#clip0_1641_25256)">
<path fill-rule="evenodd" clip-rule="evenodd" d="M13.9888 0L13.9944 6.85916e-06C13.6268 0.000907706 13.2703 0.0905617 12.936 0.28L2.65442 6.216C1.99362 6.5968 1.59042 7.2912 1.59042 8.0528V19.9248C1.59042 20.6864 1.99362 21.3808 2.65442 21.7616L4.49569 22.8246L10.08 7.51532C10.1472 7.33612 10.3264 7.21292 10.5168 7.21292H13.1264L13.1376 7.20172C13.2944 7.20172 13.4064 7.35852 13.3504 7.51532L7.19442 24.3827L7.19773 24.3846L7.19033 24.4048L8.26553 25.0208L8.27299 25.014L8.26561 25.0097L14.6496 7.51532C14.7168 7.33612 14.896 7.21292 15.0864 7.21292H17.696V7.20172C17.8528 7.20172 17.9648 7.35852 17.9088 7.51532L10.9669 26.5608L12.936 27.6976C13.2608 27.888 13.6304 27.9776 14 27.9776C14.3696 27.9776 14.728 27.888 15.064 27.6976L25.3456 21.7616C26.0064 21.3808 26.4096 20.6864 26.4096 19.9248V8.0528C26.4096 7.2912 26.0064 6.5968 25.3456 6.216L15.0528 0.28C14.7297 0.0905615 14.3621 0.000907527 13.9944 6.85916e-06L14 0H13.9888ZM22.9123 21.1725L18.7935 9.88973V9.87853C18.7151 9.67693 18.4351 9.67693 18.3567 9.87853L17.0015 13.5969C16.9679 13.6977 16.9679 13.8097 17.0015 13.9217L20.214 22.7303L22.9123 21.1725ZM19.1406 23.35L16.5087 16.1281C16.4303 15.9265 16.1503 15.9265 16.0719 16.1281L14.7167 19.8465C14.6831 19.9473 14.6831 20.0593 14.7167 20.1713L16.4421 24.908L19.1406 23.35Z" fill="white"/>
</g>
<defs>
<clipPath id="clip0_1641_25256">
<rect width="28" height="28" fill="white"/>
</clipPath>
</defs>
</svg>
